<svg width="122" height="151" viewBox="0 0 122 151" fill="none" xmlns="http://www.w3.org/2000/svg">
<path d="M90.7352 40.8987C90.3935 40.0874 89.8215 39.3941 89.0898 38.9046C88.3582 38.415 87.4991 38.1508 86.6188 38.1445H4.45398C3.27291 38.1452 2.14038 38.6146 1.30523 39.4498C0.470082 40.2849 0.000633857 41.4174 0 42.5985V146.545C0.000633858 147.726 0.470082 148.858 1.30523 149.693C2.14038 150.529 3.27291 150.998 4.45398 150.999H86.6217C87.8025 150.997 88.9345 150.527 89.7695 149.692C90.6044 148.857 91.0742 147.725 91.0757 146.545V42.5985C91.0777 42.015 90.9629 41.4371 90.7381 40.8987H90.7352ZM90.0837 146.545C90.0826 147.463 89.7172 148.344 89.0676 148.993C88.4181 149.643 87.5374 150.008 86.6188 150.01H4.45398C3.53519 150.009 2.65405 149.644 2.00431 148.995C1.35457 148.345 0.989417 147.464 0.9891 146.545V42.5991C0.990353 41.6806 1.35579 40.8 2.0053 40.1505C2.65482 39.5009 3.53542 39.1355 4.45398 39.1342H86.6217C87.3137 39.1369 87.9892 39.3456 88.562 39.7338C89.1349 40.122 89.579 40.6721 89.8378 41.3138C89.8882 41.4417 89.9317 41.5722 89.9681 41.7047C90.0468 41.9964 90.0866 42.2971 90.0866 42.5991L90.0837 146.545Z" fill="#3F3D56"/>
<path d="M73.5878 62.6866H48.8386C48.5783 62.687 48.3205 62.6361 48.0799 62.5367C47.8393 62.4374 47.6207 62.2916 47.4365 62.1077C47.2523 61.9238 47.1062 61.7054 47.0065 61.465C46.9068 61.2246 46.8555 60.9669 46.8555 60.7066C46.8555 60.4463 46.9068 60.1886 47.0065 59.9481C47.1062 59.7077 47.2523 59.4893 47.4365 59.3054C47.6207 59.1215 47.8393 58.9757 48.0799 58.8764C48.3205 58.7771 48.5783 58.7262 48.8386 58.7266H73.5878C73.8481 58.7262 74.1059 58.7771 74.3464 58.8764C74.587 58.9757 74.8056 59.1215 74.9898 59.3054C75.174 59.4893 75.3202 59.7077 75.4199 59.9481C75.5196 60.1886 75.5709 60.4463 75.5709 60.7066C75.5709 60.9669 75.5196 61.2246 75.4199 61.465C75.3202 61.7054 75.174 61.9238 74.9898 62.1077C74.8056 62.2916 74.587 62.4374 74.3464 62.5367C74.1059 62.6361 73.8481 62.687 73.5878 62.6866Z" fill="#3F3D56"/>
<path d="M73.5878 73.0811H48.8386C48.5783 73.0815 48.3205 73.0306 48.0799 72.9313C47.8393 72.832 47.6207 72.6862 47.4365 72.5023C47.2523 72.3184 47.1062 72.1 47.0065 71.8595C46.9068 71.6191 46.8555 71.3614 46.8555 71.1011C46.8555 70.8408 46.9068 70.5831 47.0065 70.3427C47.1062 70.1023 47.2523 69.8838 47.4365 69.6999C47.6207 69.516 47.8393 69.3703 48.0799 69.2709C48.3205 69.1716 48.5783 69.1207 48.8386 69.1211H73.5878C73.8481 69.1207 74.1059 69.1716 74.3464 69.2709C74.587 69.3703 74.8056 69.516 74.9898 69.6999C75.174 69.8838 75.3202 70.1023 75.4199 70.3427C75.5196 70.5831 75.5709 70.8408 75.5709 71.1011C75.5709 71.3614 75.5196 71.6191 75.4199 71.8595C75.3202 72.1 75.174 72.3184 74.9898 72.5023C74.8056 72.6862 74.587 72.832 74.3464 72.9313C74.1059 73.0306 73.8481 73.0815 73.5878 73.0811Z" fill="#3F3D56"/>
<path d="M36.1404 79.0019H18.0538C17.4632 79.0013 16.8969 78.7664 16.4793 78.3488C16.0617 77.9311 15.8268 77.3649 15.8262 76.7743V55.4307C15.8268 54.8401 16.0617 54.2739 16.4793 53.8563C16.8969 53.4386 17.4632 53.2037 18.0538 53.2031H36.1404C36.731 53.2037 37.2972 53.4386 37.7148 53.8563C38.1324 54.2739 38.3673 54.8401 38.3679 55.4307V76.7743C38.3673 77.3649 38.1324 77.9311 37.7148 78.3488C37.2972 78.7664 36.731 79.0013 36.1404 79.0019Z" fill="#C71720"/>
<path d="M73.417 94.3663H17.4839C16.9588 94.3663 16.4552 94.1577 16.0838 93.7863C15.7125 93.415 15.5039 92.9114 15.5039 92.3863C15.5039 91.8611 15.7125 91.3575 16.0838 90.9862C16.4552 90.6149 16.9588 90.4063 17.4839 90.4062H73.417C73.9421 90.4063 74.4457 90.6149 74.8171 90.9862C75.1884 91.3575 75.397 91.8611 75.397 92.3863C75.397 92.9114 75.1884 93.415 74.8171 93.7863C74.4457 94.1577 73.9421 94.3663 73.417 94.3663Z" fill="#CCCCCC"/>
<path d="M73.4159 104.761H17.4828C16.9582 104.76 16.4554 104.551 16.0847 104.18C15.7141 103.809 15.5059 103.305 15.5059 102.781C15.5059 102.256 15.7141 101.753 16.0847 101.382C16.4554 101.011 16.9582 100.802 17.4828 100.801H73.4159C73.6762 100.8 73.934 100.851 74.1746 100.951C74.4151 101.05 74.6338 101.196 74.8179 101.38C75.0021 101.564 75.1483 101.782 75.248 102.022C75.3477 102.263 75.399 102.521 75.399 102.781C75.399 103.041 75.3477 103.299 75.248 103.539C75.1483 103.78 75.0021 103.998 74.8179 104.182C74.6338 104.366 74.4151 104.512 74.1746 104.611C73.934 104.71 73.6762 104.761 73.4159 104.761Z" fill="#CCCCCC"/>
<path d="M73.4159 115.155H17.4828C16.9582 115.155 16.4554 114.946 16.0847 114.574C15.7141 114.203 15.5059 113.7 15.5059 113.175C15.5059 112.651 15.7141 112.148 16.0847 111.776C16.4554 111.405 16.9582 111.196 17.4828 111.195H73.4159C73.6762 111.195 73.934 111.246 74.1746 111.345C74.4151 111.444 74.6338 111.59 74.8179 111.774C75.0021 111.958 75.1483 112.176 75.248 112.417C75.3477 112.657 75.399 112.915 75.399 113.175C75.399 113.436 75.3477 113.693 75.248 113.934C75.1483 114.174 75.0021 114.393 74.8179 114.576C74.6338 114.76 74.4151 114.906 74.1746 115.005C73.934 115.105 73.6762 115.156 73.4159 115.155Z" fill="#CCCCCC"/>
<path d="M73.4159 125.55H17.4828C16.9582 125.549 16.4554 125.34 16.0847 124.969C15.7141 124.598 15.5059 124.094 15.5059 123.57C15.5059 123.045 15.7141 122.542 16.0847 122.171C16.4554 121.8 16.9582 121.591 17.4828 121.59H73.4159C73.6762 121.589 73.934 121.64 74.1746 121.74C74.4151 121.839 74.6338 121.985 74.8179 122.169C75.0021 122.353 75.1483 122.571 75.248 122.811C75.3477 123.052 75.399 123.31 75.399 123.57C75.399 123.83 75.3477 124.088 75.248 124.328C75.1483 124.569 75.0021 124.787 74.8179 124.971C74.6338 125.155 74.4151 125.301 74.1746 125.4C73.934 125.499 73.6762 125.55 73.4159 125.55Z" fill="#CCCCCC"/>
<path d="M73.4159 135.944H17.4828C16.9582 135.944 16.4554 135.735 16.0847 135.363C15.7141 134.992 15.5059 134.489 15.5059 133.964C15.5059 133.44 15.7141 132.937 16.0847 132.565C16.4554 132.194 16.9582 131.985 17.4828 131.984H73.4159C73.6762 131.984 73.934 132.035 74.1746 132.134C74.4151 132.234 74.6338 132.379 74.8179 132.563C75.0021 132.747 75.1483 132.966 75.248 133.206C75.3477 133.446 75.399 133.704 75.399 133.964C75.399 134.225 75.3477 134.482 75.248 134.723C75.1483 134.963 75.0021 135.182 74.8179 135.366C74.6338 135.549 74.4151 135.695 74.1746 135.795C73.934 135.894 73.6762 135.945 73.4159 135.944Z" fill="#CCCCCC"/>
<path d="M93.1266 56.6907C108.781 56.6907 121.472 44.0001 121.472 28.3454C121.472 12.6907 108.781 0 93.1266 0C77.4719 0 64.7812 12.6907 64.7812 28.3454C64.7812 44.0001 77.4719 56.6907 93.1266 56.6907Z" fill="#C71720"/>
<path d="M92.5775 47.8541C94.4195 47.8541 95.9127 46.3609 95.9127 44.5189C95.9127 42.6768 94.4195 41.1836 92.5775 41.1836C90.7354 41.1836 89.2422 42.6768 89.2422 44.5189C89.2422 46.3609 90.7354 47.8541 92.5775 47.8541Z" fill="white"/>
<path d="M92.2196 9.71901C89.7053 9.74395 87.3 10.7491 85.5155 12.5206C83.7311 14.292 82.7083 16.6899 82.665 19.204C82.6643 19.2521 82.664 19.5905 82.6641 20.033C82.6641 20.6819 82.9219 21.3042 83.3807 21.7631C83.8395 22.2219 84.4618 22.4797 85.1107 22.4798C85.76 22.4797 86.3828 22.2216 86.8418 21.7623C87.3009 21.303 87.5587 20.6802 87.5586 20.0309V20.0293C87.5583 19.7282 87.5582 19.5198 87.5582 19.5071C87.558 18.7015 87.7675 17.9098 88.1661 17.2098C88.5648 16.5098 89.1387 15.9256 89.8316 15.5147C90.5245 15.1039 91.3124 14.8804 92.1178 14.8664C92.9232 14.8524 93.7184 15.0482 94.4251 15.4347C95.1319 15.8213 95.7258 16.3851 96.1486 17.0708C96.5713 17.7565 96.8083 18.5404 96.8362 19.3455C96.8641 20.1505 96.6819 20.949 96.3076 21.6623C95.9333 22.3756 95.3798 22.9791 94.7015 23.4136L94.7023 23.4147C94.7023 23.4147 91.22 25.6565 90.1583 28.7319L90.1592 28.7321C89.9725 29.3622 89.8779 30.0159 89.8784 30.673C89.8784 30.9431 89.8943 33.3065 89.925 35.2247C89.9357 35.8866 90.2062 36.5177 90.6781 36.9819C91.15 37.4461 91.7855 37.7062 92.4474 37.7061C92.7788 37.706 93.1068 37.6408 93.4129 37.514C93.719 37.3872 93.9971 37.2013 94.2314 36.967C94.4657 36.7328 94.6515 36.4546 94.7783 36.1485C94.905 35.8424 94.9703 35.5144 94.9703 35.183L94.9702 35.1676C94.9595 33.4108 94.9538 31.3652 94.9538 31.2168C94.9538 29.3284 96.7755 27.4468 98.2719 26.2199C100.004 24.817 101.221 22.8789 101.733 20.7095C101.843 20.2623 101.904 19.8044 101.914 19.3439C101.914 18.0799 101.665 16.8283 101.182 15.6605C100.698 14.4927 99.989 13.4317 99.0952 12.5379C98.2014 11.6441 97.1404 10.9351 95.9726 10.4514C94.8048 9.96771 93.5532 9.71875 92.2892 9.71875C92.266 9.71875 92.2428 9.71884 92.2196 9.71901Z" fill="white"/>
</svg>
