<svg width="179" height="179" viewBox="0 0 179 179" fill="none" xmlns="http://www.w3.org/2000/svg">
<path d="M179 136.902H0V136.992H179V136.902Z" fill="#EBEBEB"/>
<path d="M161.064 142.66H151.756V142.75H161.064V142.66Z" fill="#EBEBEB"/>
<path d="M127.459 143.633H111.338V143.722H127.459V143.633Z" fill="#EBEBEB"/>
<path d="M151.398 139.34H129.635V139.429H151.398V139.34Z" fill="#EBEBEB"/>
<path d="M25.6656 139.941H18.7812V140.031H25.6656V139.941Z" fill="#EBEBEB"/>
<path d="M48.6493 139.941H28.8555V140.031H48.6493V139.941Z" fill="#EBEBEB"/>
<path d="M87.4024 141.449H60.7422V141.539H87.4024V141.449Z" fill="#EBEBEB"/>
<path d="M84.8465 120.934H15.7203C15.1788 120.933 14.6597 120.717 14.2771 120.334C13.8946 119.951 13.6797 119.431 13.6797 118.89V21.7177C13.6844 21.1793 13.9014 20.6644 14.2834 20.285C14.6655 19.9057 15.1818 19.6923 15.7203 19.6914H84.8465C85.3887 19.6914 85.9086 19.9068 86.292 20.2901C86.6753 20.6735 86.8907 21.1934 86.8907 21.7356V118.89C86.8907 119.432 86.6753 119.952 86.292 120.335C85.9086 120.718 85.3887 120.934 84.8465 120.934ZM15.7203 19.763C15.2025 19.764 14.7062 19.9703 14.3404 20.3368C13.9746 20.7033 13.7692 21.1999 13.7692 21.7177V118.89C13.7692 119.407 13.9746 119.904 14.3404 120.271C14.7062 120.637 15.2025 120.843 15.7203 120.844H84.8465C85.3646 120.843 85.8613 120.637 86.2276 120.271C86.594 119.904 86.8002 119.408 86.8012 118.89V21.7177C86.8002 21.1996 86.594 20.7029 86.2276 20.3366C85.8613 19.9702 85.3646 19.764 84.8465 19.763H15.7203Z" fill="#EBEBEB"/>
<path d="M162.285 120.934H93.1555C92.6136 120.933 92.0943 120.717 91.7111 120.334C91.328 119.951 91.1123 119.431 91.1113 118.89V21.7177C91.117 21.1789 91.3347 20.6641 91.7174 20.2848C92.1 19.9055 92.6167 19.6923 93.1555 19.6914H162.285C162.823 19.6933 163.339 19.907 163.72 20.2863C164.101 20.6656 164.318 21.1799 164.322 21.7177V118.89C164.322 119.431 164.108 119.949 163.726 120.333C163.344 120.716 162.826 120.932 162.285 120.934ZM93.1555 19.763C92.6374 19.764 92.1408 19.9702 91.7744 20.3366C91.408 20.7029 91.2018 21.1996 91.2008 21.7177V118.89C91.2018 119.408 91.408 119.904 91.7744 120.271C92.1408 120.637 92.6374 120.843 93.1555 120.844H162.285C162.803 120.843 163.3 120.637 163.666 120.271C164.033 119.904 164.239 119.408 164.24 118.89V21.7177C164.239 21.1996 164.033 20.7029 163.666 20.3366C163.3 19.9702 162.803 19.764 162.285 19.763H93.1555Z" fill="#EBEBEB"/>
<path d="M152.507 136.9L150.359 133.026L157.913 45.1836C159.656 47.9183 160.441 51.1549 160.144 54.3842L152.507 136.9Z" fill="#E0E0E0"/>
<path d="M23.3164 133.028H150.36L158.361 46.6285C158.385 46.3555 158.352 46.0805 158.264 45.8211C158.176 45.5616 158.034 45.3233 157.849 45.1213C157.664 44.9193 157.439 44.758 157.188 44.6477C156.937 44.5374 156.666 44.4804 156.392 44.4805H33.3189C32.827 44.4809 32.3528 44.6644 31.9888 44.9953C31.6248 45.3262 31.3971 45.7808 31.3499 46.2705L23.3164 133.028Z" fill="#F0F0F0"/>
<path d="M148.685 129.755L156.288 47.9909C156.306 47.7926 156.282 47.5928 156.218 47.4044C156.154 47.2159 156.051 47.0429 155.916 46.8963C155.781 46.7498 155.617 46.6329 155.435 46.5533C155.253 46.4736 155.056 46.4328 154.856 46.4336H34.6221C34.2631 46.4322 33.9166 46.5658 33.6514 46.8078C33.3862 47.0498 33.2216 47.3826 33.1901 47.7403L25.5934 129.504C25.576 129.702 25.6001 129.902 25.6642 130.09C25.7283 130.279 25.831 130.452 25.9658 130.599C26.1005 130.745 26.2644 130.862 26.4468 130.942C26.6293 131.021 26.8263 131.062 27.0254 131.061H147.26C147.617 131.061 147.962 130.926 148.226 130.685C148.49 130.443 148.653 130.111 148.685 129.755Z" fill="#FAFAFA"/>
<path d="M154.863 46.4336H34.6217C34.2626 46.4322 33.9162 46.5658 33.651 46.8078C33.3857 47.0498 33.2211 47.3826 33.1897 47.7403L32.7852 52.0972H155.901L156.284 47.9909C156.302 47.7935 156.278 47.5946 156.214 47.4069C156.151 47.2192 156.049 47.0467 155.916 46.9003C155.782 46.7539 155.62 46.6368 155.438 46.5565C155.257 46.4762 155.061 46.4343 154.863 46.4336Z" fill="#E0E0E0"/>
<path d="M40.4541 49.2646C40.4158 49.6288 40.2459 49.9665 39.9763 50.2144C39.7068 50.4622 39.356 50.6031 38.9899 50.6107C38.8176 50.6138 38.6467 50.5802 38.4886 50.5119C38.3304 50.4437 38.1886 50.3425 38.0727 50.2151C37.9568 50.0876 37.8694 49.9369 37.8165 49.773C37.7635 49.6091 37.7461 49.4358 37.7655 49.2646C37.803 48.9011 37.9723 48.5639 38.2414 48.3166C38.5105 48.0692 38.8607 47.9289 39.2261 47.9221C39.3983 47.9186 39.5693 47.9518 39.7276 48.0196C39.886 48.0873 40.028 48.1881 40.1442 48.3152C40.2605 48.4423 40.3482 48.5927 40.4017 48.7565C40.4551 48.9202 40.473 49.0935 40.4541 49.2646Z" fill="#EBEBEB"/>
<path d="M46.1103 49.2646C46.0721 49.6288 45.9022 49.9665 45.6326 50.2143C45.363 50.4621 45.0122 50.6031 44.6461 50.6106C44.4739 50.6138 44.303 50.5801 44.1448 50.5119C43.9866 50.4436 43.8449 50.3424 43.729 50.215C43.6131 50.0876 43.5257 49.9369 43.4727 49.773C43.4197 49.6091 43.4024 49.4357 43.4218 49.2646C43.4594 48.9004 43.6291 48.5627 43.899 48.3153C44.1688 48.0679 44.5199 47.928 44.886 47.9221C45.0579 47.919 45.2284 47.9526 45.3863 48.0206C45.5442 48.0886 45.6858 48.1895 45.8017 48.3165C45.9175 48.4436 46.0049 48.5938 46.0582 48.7573C46.1114 48.9208 46.1292 49.0937 46.1103 49.2646Z" fill="#F0F0F0"/>
<path d="M51.7622 49.2646C51.7247 49.6291 51.5551 49.9672 51.2853 50.2152C51.0156 50.4632 50.6644 50.6038 50.298 50.6106C50.126 50.6132 49.9553 50.5791 49.7974 50.5107C49.6396 50.4423 49.498 50.3411 49.3822 50.2138C49.2664 50.0865 49.1791 49.936 49.1259 49.7724C49.0727 49.6087 49.0549 49.4356 49.0737 49.2646C49.1113 48.9004 49.2811 48.5627 49.5509 48.3153C49.8207 48.0679 50.1719 47.928 50.5379 47.9221C50.7098 47.919 50.8804 47.9526 51.0382 48.0206C51.1961 48.0886 51.3377 48.1895 51.4536 48.3165C51.5694 48.4436 51.6569 48.5938 51.7101 48.7573C51.7633 48.9208 51.7811 49.0937 51.7622 49.2646Z" fill="white"/>
<path d="M139.441 133.027H150.364L152.505 136.901H140.798L139.441 133.027Z" fill="#E0E0E0"/>
<path d="M139.44 133.027H13.5781L14.9314 136.901H140.797L139.44 133.027Z" fill="#F5F5F5"/>
<path d="M89.0711 133.027H47.9727L48.123 133.901C48.2048 134.366 48.4481 134.788 48.8102 135.092C49.1723 135.396 49.63 135.562 50.1028 135.562H87.1235C87.4163 135.562 87.7057 135.498 87.9711 135.375C88.2366 135.251 88.4718 135.071 88.6601 134.847C88.8485 134.623 88.9855 134.36 89.0614 134.077C89.1373 133.794 89.1504 133.498 89.0997 133.21L89.0711 133.027Z" fill="#E0E0E0"/>
<path d="M89.5005 153.066C127.836 153.066 158.913 151.252 158.913 149.013C158.913 146.775 127.836 144.961 89.5005 144.961C51.165 144.961 20.0879 146.775 20.0879 149.013C20.0879 151.252 51.165 153.066 89.5005 153.066Z" fill="#F5F5F5"/>
<path d="M92.1705 96.37C116.705 86.2076 135.319 74.8938 133.748 71.0998C132.176 67.3058 111.014 72.4683 86.4795 82.6307C61.9454 92.793 43.3306 104.107 44.9021 107.901C46.4737 111.695 67.6364 106.532 92.1705 96.37Z" fill="url(#paint0_linear_115_2916)"/>
<path opacity="0.2" d="M92.1705 96.37C116.705 86.2076 135.319 74.8938 133.748 71.0998C132.176 67.3058 111.014 72.4683 86.4795 82.6307C61.9454 92.793 43.3306 104.107 44.9021 107.901C46.4737 111.695 67.6364 106.532 92.1705 96.37Z" fill="black"/>
<path d="M105.154 55.2625C104.613 55.1014 104.062 54.9511 103.518 54.815L103.603 54.457C104.155 54.5931 104.71 54.747 105.254 54.9081L105.154 55.2625Z" fill="url(#paint1_linear_115_2916)"/>
<path d="M101.037 54.2625C98.2963 53.7355 95.5116 53.4706 92.7207 53.4713V53.1133C95.5331 53.1136 98.3392 53.3797 101.101 53.908L101.037 54.2625Z" fill="url(#paint2_linear_115_2916)"/>
<path d="M92.7559 141.288V140.93C98.4922 140.93 104.172 139.795 109.467 137.59L109.603 137.923C104.265 140.145 98.5388 141.289 92.7559 141.288Z" fill="url(#paint3_linear_115_2916)"/>
<path d="M123.017 127.482C139.74 110.759 139.74 83.6469 123.017 66.9245C106.295 50.2021 79.1826 50.2021 62.4602 66.9245C45.7378 83.6469 45.7378 110.759 62.4602 127.482C79.1826 144.204 106.295 144.204 123.017 127.482Z" fill="url(#paint4_linear_115_2916)"/>
<g opacity="0.2">
<path d="M124.557 76.4679L131.298 78.5872C128.15 72.0597 123.396 66.4382 117.482 62.2498C111.568 58.0614 104.687 55.4432 97.4847 54.6406L95.4334 60.1144L89.7412 61.951C89.7412 61.951 83.3867 67.815 83.4117 68.1945C83.4368 68.574 83.3043 74.438 83.3043 74.438L78.9224 80.1266L75.1777 82.5861L75.1562 88.1494L77.3937 93.5516L80.7554 92.9359L83.6838 89.3988L83.2077 87.011L90.1207 83.1124L95.4298 85.9513L102.973 82.9584L107.842 85.9799L101.53 91.9478L91.6171 94.5111L84.543 97.4431L77.6157 103.461L79.3019 110.979L84.8187 114.631L95.641 115.186L101.859 121.784L105.776 128.686L108.114 131.671L111.898 129.595L115.739 119.994L118.378 107.707L116.946 100.579L113.963 102.684L111.815 98.1305L107.537 93.7235L106.08 90.838L115.446 95.356L125.298 93.8559L128.709 86.499L125.162 80.7388L119.434 82.1995L115.31 82.2317L113.949 79.5682L118.961 78.9059L124.557 76.4679Z" fill="white"/>
<path d="M72.6257 134.142L70.4777 127.673L60.3678 121.662L57.0312 120.824C60.8051 126.527 65.8888 131.244 71.8577 134.581C77.8266 137.918 84.5074 139.778 91.342 140.006L91.052 139.29C91.052 139.29 79.8323 135.681 79.4743 135.699C79.1163 135.717 72.6257 134.142 72.6257 134.142Z" fill="white"/>
<path d="M54.4964 94.1218L54.9081 82.3078L62.0681 77.7898L66.9118 66.094L63.8259 65.582C57.7013 71.1863 53.3376 78.4497 51.2656 86.4886C49.1936 94.5275 49.5026 102.995 52.1551 110.862L59.0681 106.43L54.4964 94.1218Z" fill="white"/>
</g>
<path opacity="0.2" d="M131.478 78.9648C125.105 84.2346 110.714 92.0068 93.34 99.199C76.2741 106.266 60.8407 110.916 52.4922 111.815C52.7022 112.409 52.9301 113.006 53.176 113.605C55.2646 118.667 58.3094 123.278 62.1439 127.187C70.9041 125.652 84.7551 121.288 99.8878 115.015C115.282 108.636 128.356 101.802 135.563 96.6608C135.496 91.2226 134.387 85.8475 132.298 80.8264C132.04 80.1892 131.768 79.5699 131.478 78.9648Z" fill="black"/>
<path d="M133.744 71.1055L140.289 86.9076C141.86 90.7024 123.248 102.015 98.714 112.175C74.1802 122.335 53.0189 127.501 51.458 123.706L44.9102 107.904C46.4818 111.699 67.6467 106.537 92.1662 96.3731C116.686 86.2095 135.323 74.8967 133.744 71.1055Z" fill="url(#paint5_linear_115_2916)"/>
<path opacity="0.5" d="M133.744 71.1055L140.289 86.9076C141.86 90.7024 123.248 102.015 98.714 112.175C74.1802 122.335 53.0189 127.501 51.458 123.706L44.9102 107.904C46.4818 111.699 67.6467 106.537 92.1662 96.3731C116.686 86.2095 135.323 74.8967 133.744 71.1055Z" fill="white"/>
<path d="M65.9023 109.712C67.0336 109.354 68.1637 108.996 69.2926 108.638C70.505 110.251 71.7163 111.866 72.9263 113.482C72.7067 111.541 72.4931 109.595 72.2855 107.643C73.406 107.267 74.5194 106.88 75.6364 106.493C77.0159 108.04 78.3894 109.591 79.7569 111.147C79.3703 109.238 78.9884 107.338 78.6113 105.448C79.7188 105.052 80.8238 104.647 81.9264 104.234C82.4706 107.693 83.0279 111.144 83.5983 114.588C82.4718 114.996 81.3393 115.399 80.2009 115.798C78.6567 114.051 77.1054 112.306 75.5469 110.564C75.7855 112.762 76.0242 114.956 76.2629 117.147C75.122 117.527 73.9776 117.902 72.8296 118.272C70.5337 115.405 68.2246 112.552 65.9023 109.712Z" fill="white"/>
<path d="M85.2246 102.953C86.3296 102.531 87.4323 102.1 88.5325 101.661C89.6781 103.274 90.8201 104.89 91.9586 106.508C91.7867 104.508 91.6185 102.501 91.4538 100.486C92.5278 100.043 93.634 99.5879 94.7188 99.1333C96.0267 100.668 97.3274 102.204 98.621 103.741C98.2845 101.798 97.9515 99.8493 97.6222 97.8946C98.7033 97.4292 99.7773 96.9578 100.844 96.4805C101.305 100.034 101.782 103.581 102.276 107.12C101.174 107.598 100.07 108.075 98.9647 108.552C97.504 106.824 96.0338 105.093 94.5541 103.358C94.7355 105.623 94.924 107.89 95.1197 110.16C94.0052 110.611 92.8894 111.057 91.7724 111.499C89.6053 108.637 87.4227 105.788 85.2246 102.953Z" fill="white"/>
<path d="M104.07 95.0294C105.144 94.539 106.218 94.0378 107.292 93.5366C108.369 95.1523 109.443 96.7681 110.514 98.3839C110.385 96.3218 110.266 94.2549 110.156 92.1833C111.23 91.6678 112.279 91.1523 113.339 90.626C114.57 92.1511 115.796 93.6762 117.016 95.2013C116.729 93.2036 116.445 91.2072 116.164 89.2119C117.216 88.6797 118.266 88.1403 119.314 87.5938C119.689 91.243 120.075 94.8814 120.474 98.5092C119.402 99.0557 118.328 99.5987 117.252 100.138C115.872 98.4197 114.487 96.7013 113.095 94.9829C113.224 97.3218 113.362 99.6524 113.507 101.975C112.424 102.497 111.338 103.013 110.249 103.521C108.202 100.688 106.142 97.8576 104.07 95.0294Z" fill="white"/>
<defs>
<linearGradient id="paint0_linear_115_2916" x1="46.2086" y1="101.478" x2="132.956" y2="80.1703" gradientUnits="userSpaceOnUse">
<stop stop-color="#AA076B"/>
<stop offset="0.902552" stop-color="#61045F"/>
</linearGradient>
<linearGradient id="paint1_linear_115_2916" x1="103.584" y1="54.5655" x2="105.211" y2="54.6485" gradientUnits="userSpaceOnUse">
<stop stop-color="#AA076B"/>
<stop offset="0.902552" stop-color="#61045F"/>
</linearGradient>
<linearGradient id="paint2_linear_115_2916" x1="93.0401" y1="53.268" x2="100.688" y2="54.5877" gradientUnits="userSpaceOnUse">
<stop stop-color="#AA076B"/>
<stop offset="0.902552" stop-color="#61045F"/>
</linearGradient>
<linearGradient id="paint3_linear_115_2916" x1="93.3979" y1="138.088" x2="109.047" y2="139.775" gradientUnits="userSpaceOnUse">
<stop stop-color="#AA076B"/>
<stop offset="0.902552" stop-color="#61045F"/>
</linearGradient>
<linearGradient id="paint4_linear_115_2916" x1="42.6414" y1="103.047" x2="100.86" y2="47.5202" gradientUnits="userSpaceOnUse">
<stop stop-color="#AA076B"/>
<stop offset="0.902552" stop-color="#61045F"/>
</linearGradient>
<linearGradient id="paint5_linear_115_2916" x1="48.5485" y1="78.3541" x2="138.104" y2="82.1112" gradientUnits="userSpaceOnUse">
<stop stop-color="#AA076B"/>
<stop offset="0.902552" stop-color="#61045F"/>
</linearGradient>
</defs>
</svg>
