<svg width="20" height="20" viewBox="0 0 20 20" fill="none" xmlns="http://www.w3.org/2000/svg">
<path d="M9.16699 14.1654L10.8337 15.832C10.9978 15.9962 11.1927 16.1264 11.4072 16.2152C11.6216 16.3041 11.8515 16.3498 12.0837 16.3498C12.3158 16.3498 12.5457 16.3041 12.7602 16.2152C12.9746 16.1264 13.1695 15.9962 13.3337 15.832C13.4978 15.6679 13.628 15.473 13.7169 15.2585C13.8057 15.0441 13.8514 14.8142 13.8514 14.582C13.8514 14.3499 13.8057 14.12 13.7169 13.9055C13.628 13.6911 13.4978 13.4962 13.3337 13.332" stroke="#202244" stroke-width="1.5" stroke-linecap="round" stroke-linejoin="round"/>
<path d="M11.6669 11.6671L13.7502 13.7504C14.0817 14.0819 14.5313 14.2682 15.0002 14.2682C15.469 14.2682 15.9187 14.0819 16.2502 13.7504C16.5817 13.4189 16.768 12.9693 16.768 12.5004C16.768 12.0316 16.5817 11.5819 16.2502 11.2504L13.0169 8.01709C12.5481 7.54892 11.9127 7.28595 11.2502 7.28595C10.5877 7.28595 9.95227 7.54892 9.48352 8.01709L8.75019 8.75042C8.41867 9.08194 7.96903 9.26819 7.50019 9.26819C7.03135 9.26819 6.58171 9.08194 6.25019 8.75042C5.91867 8.4189 5.73242 7.96926 5.73242 7.50042C5.73242 7.03158 5.91867 6.58194 6.25019 6.25042L8.59186 3.90875C9.35206 3.15054 10.3434 2.66755 11.4091 2.53623C12.4747 2.40491 13.5537 2.63278 14.4752 3.18375L14.8669 3.41709C15.2217 3.63124 15.6436 3.70552 16.0502 3.62542L17.5002 3.33375" stroke="#202244" stroke-width="1.5" stroke-linecap="round" stroke-linejoin="round"/>
<path d="M17.5003 2.5L18.3337 11.6667H16.667" stroke="#202244" stroke-width="1.5" stroke-linecap="round" stroke-linejoin="round"/>
<path d="M2.50033 2.5L1.66699 11.6667L7.08366 17.0833C7.41518 17.4149 7.86482 17.6011 8.33366 17.6011C8.8025 17.6011 9.25214 17.4149 9.58366 17.0833C9.91518 16.7518 10.1014 16.3022 10.1014 15.8333C10.1014 15.3645 9.91518 14.9149 9.58366 14.5833" stroke="#202244" stroke-width="1.5" stroke-linecap="round" stroke-linejoin="round"/>
<path d="M2.5 3.33203H9.16667" stroke="#202244" stroke-width="1.5" stroke-linecap="round" stroke-linejoin="round"/>
</svg>
