<svg width="18" height="18" viewBox="0 0 18 18" fill="none" xmlns="http://www.w3.org/2000/svg">
<path d="M1.5 4.5H4.5" stroke="url(#paint0_linear_231_894)" stroke-width="1.5" stroke-linecap="round" stroke-linejoin="round"/>
<path d="M1.5 7.5H4.5" stroke="url(#paint1_linear_231_894)" stroke-width="1.5" stroke-linecap="round" stroke-linejoin="round"/>
<path d="M1.5 10.5H4.5" stroke="url(#paint2_linear_231_894)" stroke-width="1.5" stroke-linecap="round" stroke-linejoin="round"/>
<path d="M1.5 13.5H4.5" stroke="url(#paint3_linear_231_894)" stroke-width="1.5" stroke-linecap="round" stroke-linejoin="round"/>
<path d="M13.5 1.5H4.5C3.67157 1.5 3 2.17157 3 3V15C3 15.8284 3.67157 16.5 4.5 16.5H13.5C14.3284 16.5 15 15.8284 15 15V3C15 2.17157 14.3284 1.5 13.5 1.5Z" stroke="url(#paint4_linear_231_894)" stroke-width="1.5" stroke-linecap="round" stroke-linejoin="round"/>
<path d="M7.125 6H10.875" stroke="url(#paint5_linear_231_894)" stroke-width="1.5" stroke-linecap="round" stroke-linejoin="round"/>
<path d="M7.125 9H12" stroke="url(#paint6_linear_231_894)" stroke-width="1.5" stroke-linecap="round" stroke-linejoin="round"/>
<path d="M7.125 12H10.5" stroke="url(#paint7_linear_231_894)" stroke-width="1.5" stroke-linecap="round" stroke-linejoin="round"/>
<defs>
<linearGradient id="paint0_linear_231_894" x1="1.61433" y1="4.63462" x2="4.41925" y2="4.83373" gradientUnits="userSpaceOnUse">
<stop stop-color="#AA076B"/>
<stop offset="0.902552" stop-color="#61045F"/>
</linearGradient>
<linearGradient id="paint1_linear_231_894" x1="1.61433" y1="7.63462" x2="4.41925" y2="7.83373" gradientUnits="userSpaceOnUse">
<stop stop-color="#AA076B"/>
<stop offset="0.902552" stop-color="#61045F"/>
</linearGradient>
<linearGradient id="paint2_linear_231_894" x1="1.61433" y1="10.6346" x2="4.41925" y2="10.8337" gradientUnits="userSpaceOnUse">
<stop stop-color="#AA076B"/>
<stop offset="0.902552" stop-color="#61045F"/>
</linearGradient>
<linearGradient id="paint3_linear_231_894" x1="1.61433" y1="13.6346" x2="4.41925" y2="13.8337" gradientUnits="userSpaceOnUse">
<stop stop-color="#AA076B"/>
<stop offset="0.902552" stop-color="#61045F"/>
</linearGradient>
<linearGradient id="paint4_linear_231_894" x1="3.45732" y1="3.51923" x2="14.7295" y2="3.73261" gradientUnits="userSpaceOnUse">
<stop stop-color="#AA076B"/>
<stop offset="0.902552" stop-color="#61045F"/>
</linearGradient>
<linearGradient id="paint5_linear_231_894" x1="7.26791" y1="6.13462" x2="10.7642" y2="6.44485" gradientUnits="userSpaceOnUse">
<stop stop-color="#AA076B"/>
<stop offset="0.902552" stop-color="#61045F"/>
</linearGradient>
<linearGradient id="paint6_linear_231_894" x1="7.31079" y1="9.13462" x2="11.8316" y2="9.6561" gradientUnits="userSpaceOnUse">
<stop stop-color="#AA076B"/>
<stop offset="0.902552" stop-color="#61045F"/>
</linearGradient>
<linearGradient id="paint7_linear_231_894" x1="7.25362" y1="12.1346" x2="10.405" y2="12.3863" gradientUnits="userSpaceOnUse">
<stop stop-color="#AA076B"/>
<stop offset="0.902552" stop-color="#61045F"/>
</linearGradient>
</defs>
</svg>
