<svg width="13" height="16" viewBox="0 0 13 16" fill="none" xmlns="http://www.w3.org/2000/svg">
<path fill-rule="evenodd" clip-rule="evenodd" d="M6.69556 0.799988C8.90596 0.799988 11.3849 2.35807 11.665 4.86151V6.16615C11.7608 6.63559 11.9832 7.07479 12.3036 7.43191C12.3231 7.45423 12.3411 7.47655 12.354 7.50247C12.6471 7.94383 12.8156 8.45287 12.8408 8.97847L12.8213 9.11095C12.8436 9.83095 12.6046 10.5365 12.1431 11.0938C11.5584 11.7267 10.7571 12.1234 9.89596 12.2048C7.77268 12.4352 5.62924 12.4352 3.50884 12.2048C2.65924 12.1177 1.87228 11.7209 1.29844 11.0938C0.831157 10.5452 0.584197 9.84247 0.600757 9.12535V9.03535C0.637477 8.49535 0.817477 7.97191 1.12636 7.52191L1.17748 7.45711C1.49788 7.09711 1.71748 6.66151 1.81612 6.19135V4.88671L1.84924 4.81327C1.9594 4.62751 2.16748 4.52095 2.38636 4.54327C2.63116 4.57135 2.83132 4.75711 2.8702 4.99903V6.30439V6.37423C2.73556 7.02943 2.43172 7.63711 1.98748 8.13535C1.81612 8.40751 1.72036 8.71711 1.70596 9.03535V9.17575C1.69228 9.62287 1.84132 10.0613 2.12788 10.4105C2.5246 10.8181 3.05596 11.0686 3.62404 11.119C5.67748 11.3415 7.75108 11.3415 9.80596 11.119C10.3913 11.0657 10.9349 10.8044 11.3331 10.3796C11.606 10.039 11.7471 9.61423 11.7356 9.18151V9.03535C11.7212 8.71423 11.629 8.40535 11.4598 8.12959C10.999 7.63423 10.675 7.02655 10.5288 6.36847C10.526 6.34615 10.526 6.32095 10.5288 6.29863V4.98751C10.3431 3.07519 8.41996 1.88863 6.74596 1.88863C6.0346 1.88863 5.33404 2.06863 4.71556 2.41423L4.63924 2.45383C4.48228 2.51575 4.30516 2.50423 4.15612 2.41999C3.98404 2.31847 3.87748 2.13343 3.88324 1.93615C3.88828 1.73671 4.00132 1.55671 4.17844 1.46671C4.94596 1.03327 5.81212 0.805748 6.69556 0.799988ZM7.90231 13.4504C8.10175 13.2704 8.40847 13.2596 8.62231 13.4367C8.85559 13.6275 8.88943 13.9738 8.69503 14.2042C8.21695 14.8256 7.47823 15.1913 6.68983 15.2L6.53215 15.1942C5.80639 15.141 5.13463 14.7838 4.69039 14.2042L4.64215 14.1394C4.50463 13.9119 4.54927 13.611 4.76311 13.4367C4.99639 13.2423 5.34559 13.2762 5.53927 13.5094C5.62423 13.6225 5.72503 13.7204 5.84023 13.8046C6.14407 14.03 6.52639 14.1258 6.90079 14.0696C7.27807 14.0134 7.61503 13.8133 7.84111 13.5094H7.84615L7.90231 13.4504Z" fill="#AA076B"/>
<path d="M11.665 4.86151H11.7354L11.7346 4.85372L11.665 4.86151ZM11.665 6.16615H11.5936L11.5964 6.18014L11.665 6.16615ZM12.3036 7.43191L12.3564 7.38593L12.3557 7.38516L12.3036 7.43191ZM12.354 7.50247L12.291 7.53401L12.2957 7.54119L12.354 7.50247ZM12.8408 8.97847L12.9113 8.98882L12.9107 8.97512L12.8408 8.97847ZM12.8213 9.11095L12.751 9.10062L12.7514 9.11312L12.8213 9.11095ZM12.1431 11.0938L12.1946 11.1414L12.197 11.1385L12.1431 11.0938ZM9.89596 12.2048L9.88937 12.1351L9.8884 12.1352L9.89596 12.2048ZM3.50884 12.2048L3.5164 12.1352L3.51598 12.1352L3.50884 12.2048ZM1.29844 11.0938L1.24511 11.1392L1.24679 11.1411L1.29844 11.0938ZM0.600757 9.12535L0.670757 9.12696V9.12535H0.600757ZM0.600757 9.03535L0.530757 9.03059V9.03535H0.600757ZM1.12636 7.52191L1.07128 7.47846L1.06864 7.48229L1.12636 7.52191ZM1.17748 7.45711L1.1251 7.41049L1.12252 7.41375L1.17748 7.45711ZM1.81612 6.19135L1.88463 6.20572L1.88612 6.19861V6.19135H1.81612ZM1.81612 4.88671L1.75231 4.85793L1.74612 4.87165V4.88671H1.81612ZM1.84924 4.81327L1.78865 4.77734L1.78543 4.78449L1.84924 4.81327ZM2.38636 4.54327L2.39434 4.47372L2.39346 4.47363L2.38636 4.54327ZM2.8702 4.99903H2.9411L2.93931 4.98792L2.8702 4.99903ZM2.8702 6.37423L2.93876 6.38832L2.9402 6.38135V6.37423H2.8702ZM1.98748 8.13535L1.9345 8.08811L1.92824 8.09805L1.98748 8.13535ZM1.70596 9.03535L1.63596 9.03218V9.03535H1.70596ZM1.70596 9.17575L1.77596 9.17789V9.17575H1.70596ZM2.12788 10.4105L2.07357 10.4551L2.07772 10.4594L2.12788 10.4105ZM3.62404 11.119L3.63158 11.0494L3.63022 11.0493L3.62404 11.119ZM9.80596 11.119L9.79961 11.0493L9.79842 11.0494L9.80596 11.119ZM11.3331 10.3796L11.3843 10.4276L11.3877 10.4234L11.3331 10.3796ZM11.7356 9.18151H11.6655L11.6656 9.18337L11.7356 9.18151ZM11.7356 9.03535H11.8056L11.8055 9.03221L11.7356 9.03535ZM11.4598 8.12959L11.5207 8.09224L11.5111 8.08191L11.4598 8.12959ZM10.5288 6.36847L10.4591 6.37746L10.4605 6.38365L10.5288 6.36847ZM10.5288 6.29863L10.5988 6.30766V6.29863H10.5288ZM10.5288 4.98751H10.5992L10.5985 4.98074L10.5288 4.98751ZM4.71556 2.41423L4.74781 2.47639L4.7497 2.47533L4.71556 2.41423ZM4.63924 2.45383L4.66506 2.51929L4.67148 2.51596L4.63924 2.45383ZM4.15612 2.41999L4.12054 2.48029L4.12167 2.48093L4.15612 2.41999ZM3.88324 1.93615L3.95321 1.93819L3.95321 1.93792L3.88324 1.93615ZM4.17844 1.46671L4.21018 1.52917L4.21286 1.52766L4.17844 1.46671ZM7.90231 13.4504L7.85527 13.3983L7.85159 13.4021L7.90231 13.4504ZM8.62231 13.4367L8.57766 13.4906L8.57799 13.4909L8.62231 13.4367ZM8.69503 14.2042L8.64148 14.159L8.63955 14.1615L8.69503 14.2042ZM6.68983 15.2L6.68727 15.27L6.6906 15.27L6.68983 15.2ZM6.53215 15.1942L6.52702 15.2641L6.52959 15.2642L6.53215 15.1942ZM4.69039 14.2042L4.63424 14.246L4.63483 14.2468L4.69039 14.2042ZM4.64215 14.1394L4.58196 14.1758L4.586 14.1812L4.64215 14.1394ZM4.76311 13.4367L4.80733 13.491L4.80792 13.4905L4.76311 13.4367ZM5.53927 13.5094L5.59529 13.4673L5.59313 13.4647L5.53927 13.5094ZM5.84023 13.8046L5.88193 13.7484L5.88155 13.7481L5.84023 13.8046ZM6.90079 14.0696L6.89048 14.0004L6.89041 14.0004L6.90079 14.0696ZM7.84111 13.5094V13.4394H7.80594L7.78495 13.4676L7.84111 13.5094ZM7.84615 13.5094V13.5794H7.87618L7.89687 13.5577L7.84615 13.5094ZM6.69556 0.869988C8.88122 0.869988 11.3204 2.41115 11.5954 4.86929L11.7346 4.85372C11.4494 2.30498 8.9307 0.729988 6.69556 0.729988V0.869988ZM11.595 4.86151V6.16615H11.735V4.86151H11.595ZM11.5964 6.18014C11.6947 6.66191 11.9229 7.11238 12.2515 7.47865L12.3557 7.38516C12.0436 7.0372 11.8268 6.60927 11.7336 6.15216L11.5964 6.18014ZM12.2509 7.47788C12.2697 7.49947 12.2827 7.51623 12.2914 7.53377L12.4166 7.47116C12.3995 7.43686 12.3765 7.40898 12.3564 7.38593L12.2509 7.47788ZM12.2957 7.54119C12.5819 7.97217 12.7463 8.46901 12.7708 8.98182L12.9107 8.97512C12.8849 8.43672 12.7123 7.91549 12.4124 7.46375L12.2957 7.54119ZM12.7715 8.9683L12.7521 9.10078L12.8906 9.12111L12.91 8.98863L12.7715 8.9683ZM12.7514 9.11312C12.7731 9.81623 12.5397 10.5051 12.0892 11.0492L12.197 11.1385C12.6695 10.5679 12.9141 9.84566 12.8913 9.10878L12.7514 9.11312ZM12.0917 11.0463C11.5187 11.6665 10.7334 12.0554 9.88937 12.1351L9.90254 12.2745C10.7808 12.1915 11.5981 11.7869 12.1945 11.1413L12.0917 11.0463ZM9.8884 12.1352C7.77014 12.3651 5.63177 12.3651 3.5164 12.1352L3.50128 12.2744C5.62671 12.5053 7.77521 12.5053 9.90351 12.2744L9.8884 12.1352ZM3.51598 12.1352C2.68346 12.0498 1.91234 11.661 1.35008 11.0466L1.24679 11.1411C1.83222 11.7809 2.63501 12.1856 3.5017 12.2744L3.51598 12.1352ZM1.35173 11.0484C0.895678 10.513 0.654573 9.82703 0.670739 9.12696L0.530776 9.12373C0.513822 9.85791 0.766637 10.5774 1.24515 11.1392L1.35173 11.0484ZM0.670757 9.12535V9.03535H0.530757V9.12535H0.670757ZM0.670596 9.0401C0.706475 8.51247 0.882347 8.0011 1.18407 7.56152L1.06864 7.48229C0.752608 7.94272 0.56848 8.47822 0.530919 9.0306L0.670596 9.0401ZM1.18131 7.56526L1.23243 7.50046L1.12252 7.41375L1.0714 7.47855L1.18131 7.56526ZM1.22977 7.50365C1.55828 7.13453 1.78347 6.68785 1.88463 6.20572L1.74761 6.17697C1.65148 6.63517 1.43748 7.05968 1.12519 7.41057L1.22977 7.50365ZM1.88612 6.19135V4.88671H1.74612V6.19135H1.88612ZM1.87993 4.91549L1.91305 4.84205L1.78543 4.78449L1.75231 4.85793L1.87993 4.91549ZM1.90945 4.84897C2.00575 4.68658 2.18761 4.59336 2.37926 4.61291L2.39346 4.47363C2.14734 4.44853 1.91305 4.56843 1.78903 4.77756L1.90945 4.84897ZM2.37838 4.61281C2.59312 4.63744 2.76736 4.80028 2.80108 5.01014L2.93931 4.98792C2.89528 4.71393 2.6692 4.50525 2.39433 4.47372L2.37838 4.61281ZM2.8002 4.99903V6.30439H2.9402V4.99903H2.8002ZM2.8002 6.30439V6.37423H2.9402V6.30439H2.8002ZM2.80163 6.36014C2.66945 7.00336 2.3712 7.5998 1.93523 8.08876L2.03973 8.18193C2.49224 7.67441 2.80166 7.0555 2.93876 6.38832L2.80163 6.36014ZM1.92824 8.09805C1.75036 8.38057 1.65097 8.70195 1.63603 9.03218L1.77589 9.03851C1.78974 8.73226 1.88188 8.43444 2.04671 8.17264L1.92824 8.09805ZM1.63596 9.03535V9.17575H1.77596V9.03535H1.63596ZM1.63599 9.17361C1.62179 9.6377 1.7765 10.0927 2.07377 10.455L2.18199 10.3661C1.90614 10.03 1.76276 9.60803 1.77592 9.17789L1.63599 9.17361ZM2.07772 10.4594C2.48625 10.879 3.03327 11.1369 3.61785 11.1888L3.63022 11.0493C3.07865 11.0004 2.56294 10.7571 2.17804 10.3617L2.07772 10.4594ZM3.6165 11.1886C5.67495 11.4116 7.75361 11.4116 9.81349 11.1886L9.79842 11.0494C7.74855 11.2714 5.68 11.2714 3.63158 11.0494L3.6165 11.1886ZM9.8123 11.1887C10.4143 11.1339 10.974 10.8651 11.3841 10.4275L11.282 10.3317C10.8958 10.7437 10.3683 10.9976 9.79961 11.0493L9.8123 11.1887ZM11.3877 10.4234C11.671 10.0698 11.8175 9.62879 11.8055 9.17965L11.6656 9.18337C11.6767 9.59967 11.5409 10.0083 11.2785 10.3358L11.3877 10.4234ZM11.8056 9.18151V9.03535H11.6656V9.18151H11.8056ZM11.8055 9.03221C11.7906 8.69958 11.695 8.37913 11.5195 8.09298L11.4001 8.1662C11.563 8.43157 11.6517 8.72888 11.6656 9.03848L11.8055 9.03221ZM11.5111 8.08191C11.0585 7.59544 10.7406 6.9989 10.5972 6.35329L10.4605 6.38365C10.6094 7.05419 10.9395 7.67302 11.4085 8.17727L11.5111 8.08191ZM10.5983 6.35951C10.5961 6.34314 10.5961 6.32396 10.5983 6.30759L10.4594 6.28967C10.4558 6.31794 10.4558 6.34916 10.4594 6.37743L10.5983 6.35951ZM10.5988 6.29863V4.98751H10.4588V6.29863H10.5988ZM10.5985 4.98074C10.4082 3.02152 8.44372 1.81863 6.74596 1.81863V1.95863C8.3962 1.95863 10.278 3.12886 10.4592 4.99428L10.5985 4.98074ZM6.74596 1.81863C6.02283 1.81863 5.31049 2.0016 4.68141 2.35312L4.7497 2.47533C5.35758 2.13566 6.04636 1.95863 6.74596 1.95863V1.81863ZM4.68332 2.35209L4.607 2.39169L4.67148 2.51596L4.7478 2.47636L4.68332 2.35209ZM4.61355 2.38871C4.47616 2.44291 4.32115 2.43286 4.19056 2.35905L4.12167 2.48093C4.28917 2.5756 4.48839 2.58859 4.66493 2.51894L4.61355 2.38871ZM4.19169 2.3597C4.04047 2.27049 3.94823 2.10872 3.95321 1.93819L3.81327 1.9341C3.80673 2.15813 3.92761 2.36645 4.12055 2.48028L4.19169 2.3597ZM3.95321 1.93792C3.95761 1.76399 4.05612 1.60738 4.21015 1.52911L4.14673 1.4043C3.94651 1.50604 3.81894 1.70943 3.81326 1.93438L3.95321 1.93792ZM4.21286 1.52766C4.96985 1.10016 5.8243 0.87567 6.69601 0.869986L6.6951 0.729989C5.79994 0.735826 4.92206 0.966371 4.14402 1.40576L4.21286 1.52766ZM7.94921 13.5024C8.12309 13.3454 8.39083 13.3359 8.57766 13.4906L8.66696 13.3828C8.42611 13.1833 8.08041 13.1954 7.85541 13.3984L7.94921 13.5024ZM8.57799 13.4909C8.78135 13.6572 8.81046 13.9589 8.64153 14.1591L8.74853 14.2494C8.9684 13.9888 8.92983 13.5978 8.66663 13.3825L8.57799 13.4909ZM8.63955 14.1615C8.17471 14.7657 7.45625 15.1216 6.68906 15.13L6.6906 15.27C7.50021 15.2611 8.25919 14.8855 8.75051 14.2469L8.63955 14.1615ZM6.69239 15.13L6.53471 15.1243L6.52959 15.2642L6.68727 15.2699L6.69239 15.13ZM6.53728 15.1244C5.83113 15.0726 5.17784 14.7251 4.74595 14.1616L4.63483 14.2468C5.09142 14.8425 5.78165 15.2093 6.52703 15.264L6.53728 15.1244ZM4.74654 14.1624L4.6983 14.0976L4.586 14.1812L4.63424 14.246L4.74654 14.1624ZM4.70206 14.1032C4.58206 13.9047 4.62131 13.6425 4.80733 13.491L4.71889 13.3824C4.47723 13.5794 4.4272 13.9191 4.58224 14.1756L4.70206 14.1032ZM4.80792 13.4905C5.01118 13.3211 5.31622 13.3504 5.48541 13.5541L5.59313 13.4647C5.37496 13.2019 4.9816 13.1635 4.7183 13.3829L4.80792 13.4905ZM5.48331 13.5515C5.57266 13.6704 5.67848 13.7731 5.79891 13.8611L5.88155 13.7481C5.77158 13.6677 5.67581 13.5746 5.59523 13.4674L5.48331 13.5515ZM5.79853 13.8609C6.11729 14.0973 6.51834 14.1977 6.91117 14.1388L6.89041 14.0004C6.53444 14.0538 6.17086 13.9627 5.88193 13.7484L5.79853 13.8609ZM6.9111 14.1388C7.30644 14.08 7.65999 13.8701 7.89727 13.5512L7.78495 13.4676C7.57007 13.7564 7.2497 13.9469 6.89048 14.0004L6.9111 14.1388ZM7.84111 13.5794H7.84615V13.4394H7.84111V13.5794ZM7.89687 13.5577L7.95303 13.4986L7.85159 13.4021L7.79543 13.4612L7.89687 13.5577Z" fill="#AA076B"/>
</svg>
