<svg width="20" height="20" viewBox="0 0 20 20" fill="none" xmlns="http://www.w3.org/2000/svg">
<path d="M8.33301 10.832H11.6663" stroke="#202244" stroke-width="2" stroke-linecap="round" stroke-linejoin="round"/>
<path d="M10 5V10.8333" stroke="#202244" stroke-width="1.5" stroke-linecap="round" stroke-linejoin="round"/>
<path d="M13.3337 6.66667V5H6.66699V6.66667" stroke="#202244" stroke-width="1.5" stroke-linecap="round" stroke-linejoin="round"/>
<path d="M3.33301 16.2513V3.7513C3.33301 3.19877 3.5525 2.66886 3.9432 2.27816C4.3339 1.88746 4.86381 1.66797 5.41634 1.66797H15.833C16.054 1.66797 16.266 1.75577 16.4223 1.91205C16.5785 2.06833 16.6663 2.28029 16.6663 2.5013V17.5013C16.6663 17.7223 16.5785 17.9343 16.4223 18.0906C16.266 18.2468 16.054 18.3346 15.833 18.3346H5.41634C4.86381 18.3346 4.3339 18.1151 3.9432 17.7244C3.5525 17.3337 3.33301 16.8038 3.33301 16.2513ZM3.33301 16.2513C3.33301 15.6988 3.5525 15.1689 3.9432 14.7782C4.3339 14.3875 4.86381 14.168 5.41634 14.168H16.6663" stroke="#202244" stroke-width="1.5" stroke-linecap="round" stroke-linejoin="round"/>
</svg>
