<svg width="20" height="20" viewBox="0 0 20 20" fill="none" xmlns="http://www.w3.org/2000/svg">
<path d="M5 1.66797L2.5 5.0013V16.668C2.5 17.11 2.67559 17.5339 2.98816 17.8465C3.30072 18.159 3.72464 18.3346 4.16667 18.3346H15.8333C16.2754 18.3346 16.6993 18.159 17.0118 17.8465C17.3244 17.5339 17.5 17.11 17.5 16.668V5.0013L15 1.66797H5Z" stroke="#202244" stroke-width="1.5" stroke-linecap="round" stroke-linejoin="round"/>
<path d="M2.5 5H17.5" stroke="#202244" stroke-width="1.5" stroke-linecap="round" stroke-linejoin="round"/>
<path d="M13.3337 8.33203C13.3337 9.21609 12.9825 10.0639 12.3573 10.6891C11.7322 11.3142 10.8844 11.6654 10.0003 11.6654C9.11627 11.6654 8.26842 11.3142 7.6433 10.6891C7.01818 10.0639 6.66699 9.21609 6.66699 8.33203" stroke="#202244" stroke-width="1.5" stroke-linecap="round" stroke-linejoin="round"/>
</svg>
