<svg width="18" height="18" viewBox="0 0 18 18" fill="none" xmlns="http://www.w3.org/2000/svg">
<g clip-path="url(#clip0_231_930)">
<path d="M12.75 1.5H5.25C4.42157 1.5 3.75 2.17157 3.75 3V6C3.75 6.82843 4.42157 7.5 5.25 7.5H12.75C13.5784 7.5 14.25 6.82843 14.25 6V3C14.25 2.17157 13.5784 1.5 12.75 1.5Z" stroke="url(#paint0_linear_231_930)" stroke-width="1.5" stroke-linecap="round" stroke-linejoin="round"/>
<path d="M15 10.5H3C2.17157 10.5 1.5 11.1716 1.5 12V15C1.5 15.8284 2.17157 16.5 3 16.5H15C15.8284 16.5 16.5 15.8284 16.5 15V12C16.5 11.1716 15.8284 10.5 15 10.5Z" stroke="url(#paint1_linear_231_930)" stroke-width="1.5" stroke-linecap="round" stroke-linejoin="round"/>
<path d="M4.5 13.5H6" stroke="url(#paint2_linear_231_930)" stroke-width="1.5" stroke-linecap="round" stroke-linejoin="round"/>
<path d="M9 13.5H13.5" stroke="url(#paint3_linear_231_930)" stroke-width="1.5" stroke-linecap="round" stroke-linejoin="round"/>
</g>
<defs>
<linearGradient id="paint0_linear_231_930" x1="4.15015" y1="2.30769" x2="13.9999" y2="2.71556" gradientUnits="userSpaceOnUse">
<stop stop-color="#AA076B"/>
<stop offset="0.902552" stop-color="#61045F"/>
</linearGradient>
<linearGradient id="paint1_linear_231_930" x1="2.07165" y1="11.3077" x2="16.1178" y2="12.1386" gradientUnits="userSpaceOnUse">
<stop stop-color="#AA076B"/>
<stop offset="0.902552" stop-color="#61045F"/>
</linearGradient>
<linearGradient id="paint2_linear_231_930" x1="4.55716" y1="13.6346" x2="5.96492" y2="13.6846" gradientUnits="userSpaceOnUse">
<stop stop-color="#AA076B"/>
<stop offset="0.902552" stop-color="#61045F"/>
</linearGradient>
<linearGradient id="paint3_linear_231_930" x1="9.17149" y1="13.6346" x2="13.3527" y2="14.0798" gradientUnits="userSpaceOnUse">
<stop stop-color="#AA076B"/>
<stop offset="0.902552" stop-color="#61045F"/>
</linearGradient>
<clipPath id="clip0_231_930">
<rect width="18" height="18" fill="white"/>
</clipPath>
</defs>
</svg>
