<svg width="16" height="16" viewBox="0 0 16 16" fill="none" xmlns="http://www.w3.org/2000/svg">
<path fill-rule="evenodd" clip-rule="evenodd" d="M8 1.33333C4.318 1.33333 1.33333 4.318 1.33333 8C1.33333 11.682 4.318 14.6667 8 14.6667C11.682 14.6667 14.6667 11.682 14.6667 8C14.6667 4.318 11.682 1.33333 8 1.33333ZM8 16C3.58067 16 0 12.4193 0 8C0 3.58067 3.58067 0 8 0C12.4193 0 16 3.58067 16 8C16 12.4193 12.4193 16 8 16Z" fill="#EB6A20"/>
<path fill-rule="evenodd" clip-rule="evenodd" d="M11.333 11.6667C11.169 11.6667 11.0077 11.604 10.885 11.492L7.55167 8.492C7.41367 8.36733 7.33301 8.18733 7.33301 8V4.66667C7.33301 4.29933 7.63234 4 7.99967 4C8.36701 4 8.66634 4.29933 8.66634 4.66667V7.70067L11.781 10.5C11.989 10.6847 12.0597 10.9793 11.9603 11.2393C11.8617 11.4973 11.6117 11.6693 11.333 11.6667Z" fill="#EB6A20"/>
</svg>
