<svg width="12" height="12" viewBox="0 0 12 12" fill="none" xmlns="http://www.w3.org/2000/svg">
<path fill-rule="evenodd" clip-rule="evenodd" d="M3.68966 1.19277H1.98139C1.76504 1.18816 1.55331 1.27412 1.39985 1.42931C1.24466 1.58277 1.15639 1.79681 1.15639 2.01777V3.76181C1.15235 3.98508 1.23773 4.20373 1.3935 4.36123C1.54869 4.52162 1.76043 4.607 1.98139 4.60239H3.68966C3.906 4.60239 4.11312 4.51239 4.26427 4.35431C4.41773 4.19681 4.50081 3.98277 4.4985 3.76181V2.01777C4.49446 1.56258 4.13389 1.19508 3.68966 1.19277ZM3.6897 0.230469C4.65431 0.232776 5.43605 1.03297 5.44066 2.01778V3.76181C5.44066 4.23489 5.25605 4.68835 4.9272 5.02412C4.59778 5.35758 4.15412 5.54451 3.6897 5.5422H1.98143C1.01681 5.53989 0.237392 4.74431 0.230469 3.76181V2.01778C0.237392 1.03297 1.01681 0.237392 1.98143 0.230469H3.6897ZM10.0176 0.230469C10.9753 0.252969 11.7437 1.04162 11.7639 2.01778V3.75489C11.7685 4.22855 11.5903 4.68374 11.2684 5.02181C10.9435 5.35989 10.5022 5.55374 10.0401 5.56008H9.3322C9.09336 5.53297 8.91105 5.32816 8.91105 5.08239C8.91105 4.83431 9.09336 4.62951 9.3322 4.60239H10.0176C10.2339 4.60239 10.441 4.51239 10.5945 4.35431C10.7451 4.19681 10.8287 3.98278 10.8264 3.76181V2.01778C10.8195 1.56431 10.4612 1.19739 10.0176 1.19278H8.30932C7.86278 1.19278 7.4999 1.56258 7.4999 2.01778V4.62489L7.49586 4.68605C7.45951 4.92028 7.25874 5.09855 7.0199 5.09624C6.89413 5.09162 6.77701 5.0397 6.69105 4.94739C6.60566 4.85508 6.56066 4.73105 6.5647 4.60239V2.01778C6.5624 1.54412 6.74528 1.08893 7.07413 0.753161C7.40124 0.4197 7.8449 0.230469 8.30932 0.230469H10.0176ZM10.0177 7.4126H8.30942C7.86288 7.4126 7.5 7.78241 7.5 8.2376V9.98164C7.5 10.2003 7.58365 10.412 7.73712 10.5678C7.88769 10.7213 8.09538 10.8089 8.30942 10.8066H10.0177C10.2317 10.8089 10.4388 10.7213 10.59 10.5678C10.7435 10.412 10.8265 10.2003 10.8265 9.98164V8.2376C10.8265 8.01894 10.7412 7.80952 10.59 7.65375C10.4365 7.50087 10.2317 7.4126 10.0177 7.4126ZM2.68239 6.4572C2.86239 6.43701 3.03605 6.52239 3.13297 6.68047C3.22758 6.83566 3.22758 7.03413 3.13297 7.18989C3.03605 7.34509 2.86239 7.43278 2.68239 7.41259H1.98143C1.53316 7.41259 1.17028 7.78239 1.16797 8.23759V9.95913C1.17951 10.412 1.53778 10.7772 1.98143 10.7841H3.70124C3.91528 10.7864 4.12239 10.7005 4.27585 10.5453C4.42874 10.3895 4.5147 10.1801 4.5147 9.95913V7.37451L4.50547 7.30932C4.49855 7.14028 4.57989 6.97355 4.72412 6.88066C4.88624 6.77509 5.09624 6.78201 5.25143 6.89682C5.40951 7.01163 5.48162 7.21239 5.43432 7.40163V9.97528C5.43432 10.9624 4.65201 11.7643 3.68278 11.7643H1.98143C1.02374 11.7441 0.250661 10.9555 0.230469 9.97528V8.23759C0.230469 7.76451 0.415084 7.31105 0.744507 6.97528C1.07105 6.64182 1.51701 6.45489 1.98143 6.4572H2.68239ZM10.0173 6.45721C10.982 6.45952 11.7614 7.2551 11.7683 8.2376V9.98164C11.7614 10.9664 10.982 11.762 10.0173 11.7689H8.30907C7.34676 11.762 6.56676 10.9641 6.56445 9.98164V8.2376C6.56445 7.2551 7.34445 6.45721 8.30907 6.45721H10.0173Z" fill="#202244"/>
</svg>
