<svg width="14" height="14" viewBox="0 0 14 14" fill="none" xmlns="http://www.w3.org/2000/svg">
<path d="M3.0625 3.0625V6.07557C3.0625 8.24669 4.79908 10.0463 6.97014 10.0624C7.48972 10.0663 8.00494 9.96739 8.4861 9.77129C8.96727 9.57518 9.40486 9.28578 9.77366 8.91977C10.1425 8.55376 10.4352 8.11837 10.6349 7.63871C10.8347 7.15905 10.9375 6.64459 10.9375 6.125V3.0625C10.9375 2.94647 10.8914 2.83519 10.8094 2.75314C10.7273 2.67109 10.616 2.625 10.5 2.625H3.5C3.38397 2.625 3.27269 2.67109 3.19064 2.75314C3.10859 2.83519 3.0625 2.94647 3.0625 3.0625Z" stroke="#EB6A20" stroke-width="1.5" stroke-linecap="round" stroke-linejoin="round"/>
<path d="M5.25 12.25H8.75" stroke="#EB6A20" stroke-width="1.5" stroke-linecap="round" stroke-linejoin="round"/>
<path d="M7 10.0625V12.25" stroke="#EB6A20" stroke-width="1.5" stroke-linecap="round" stroke-linejoin="round"/>
<path d="M10.8398 7H11.3749C11.8391 7 12.2842 6.81563 12.6124 6.48744C12.9406 6.15925 13.1249 5.71413 13.1249 5.25V4.375C13.1249 4.25897 13.0788 4.14769 12.9968 4.06564C12.9147 3.98359 12.8035 3.9375 12.6874 3.9375H10.9374" stroke="#EB6A20" stroke-width="1.5" stroke-linecap="round" stroke-linejoin="round"/>
<path d="M3.17002 7H2.61816C2.15404 7 1.70892 6.81563 1.38073 6.48744C1.05254 6.15925 0.868164 5.71413 0.868164 5.25V4.375C0.868164 4.25897 0.914258 4.14769 0.996305 4.06564C1.07835 3.98359 1.18963 3.9375 1.30566 3.9375H3.05566" stroke="#EB6A20" stroke-width="1.5" stroke-linecap="round" stroke-linejoin="round"/>
</svg>
