<svg width="14" height="14" viewBox="0 0 14 14" fill="none" xmlns="http://www.w3.org/2000/svg">
<path d="M7 1.3125V2.625" stroke="#EB6A20" stroke-width="1.5" stroke-linecap="round" stroke-linejoin="round"/>
<path d="M7 11.375V12.6875" stroke="#EB6A20" stroke-width="1.5" stroke-linecap="round" stroke-linejoin="round"/>
<path d="M10.0625 4.8125C10.0625 4.52523 10.0059 4.24078 9.89599 3.97538C9.78605 3.70998 9.62492 3.46883 9.4218 3.2657C9.21867 3.06258 8.97752 2.90145 8.71212 2.79151C8.44672 2.68158 8.16227 2.625 7.875 2.625H5.90625C5.32609 2.625 4.76969 2.85547 4.35945 3.2657C3.94922 3.67594 3.71875 4.23234 3.71875 4.8125C3.71875 5.39266 3.94922 5.94906 4.35945 6.3593C4.76969 6.76953 5.32609 7 5.90625 7H8.3125C8.89266 7 9.44906 7.23047 9.8593 7.6407C10.2695 8.05094 10.5 8.60734 10.5 9.1875C10.5 9.76766 10.2695 10.3241 9.8593 10.7343C9.44906 11.1445 8.89266 11.375 8.3125 11.375H5.6875C5.10734 11.375 4.55094 11.1445 4.1407 10.7343C3.73047 10.3241 3.5 9.76766 3.5 9.1875" stroke="#EB6A20" stroke-width="1.5" stroke-linecap="round" stroke-linejoin="round"/>
</svg>
