<svg width="16" height="13" viewBox="0 0 16 13" fill="none" xmlns="http://www.w3.org/2000/svg">
<g id="ICON">
<path id="Fill 1" fill-rule="evenodd" clip-rule="evenodd" d="M15.8326 1.67022L15.1986 1.03455L9.31891 6.91425C8.58437 7.64846 7.34877 7.64846 6.61222 6.91425L0.734516 1.06862L0.0985107 1.70262L4.47539 6.07916L0.0985107 10.4557L0.734516 11.0897L5.10905 6.71316L5.97855 7.58232C6.51368 8.11745 7.21382 8.41742 7.94836 8.41742C8.68491 8.41742 9.38505 8.11745 9.92051 7.58232L10.7877 6.71316L15.1645 11.0897L15.7982 10.4557L11.4237 6.07916L15.8326 1.67022Z" fill="#545454"/>
<path id="Fill 3" fill-rule="evenodd" clip-rule="evenodd" d="M1.3683 0.901563C1.10073 0.901563 0.901647 1.10265 0.901647 1.36855V10.7897C0.901647 11.0556 1.10073 11.2567 1.3683 11.2567H14.5627C14.8306 11.2567 15.0314 11.0556 15.0314 10.7897V1.36855C15.0314 1.10265 14.8306 0.901563 14.5627 0.901563H1.3683ZM14.5973 12.2247H1.40283C0.633879 12.2247 -0.00012207 11.5907 -0.00012207 10.8221V1.40262C-0.00012207 0.634001 0.633879 0 1.40283 0H14.5973C15.3655 0 15.9999 0.634001 15.9999 1.40262V10.8221C15.9999 11.5907 15.3655 12.2247 14.5973 12.2247Z" fill="#545454"/>
</g>
</svg>
