<svg width="20" height="20" viewBox="0 0 20 20" fill="none" xmlns="http://www.w3.org/2000/svg">
<path d="M12.5003 1.66797H7.50033C7.04009 1.66797 6.66699 2.04106 6.66699 2.5013V4.16797C6.66699 4.62821 7.04009 5.0013 7.50033 5.0013H12.5003C12.9606 5.0013 13.3337 4.62821 13.3337 4.16797V2.5013C13.3337 2.04106 12.9606 1.66797 12.5003 1.66797Z" stroke="#202244" stroke-width="1.5" stroke-linecap="round" stroke-linejoin="round"/>
<path d="M13.333 3.33203H14.9997C15.4417 3.33203 15.8656 3.50763 16.1782 3.82019C16.4907 4.13275 16.6663 4.55667 16.6663 4.9987V16.6654C16.6663 17.1074 16.4907 17.5313 16.1782 17.8439C15.8656 18.1564 15.4417 18.332 14.9997 18.332H4.99967C4.55765 18.332 4.13372 18.1564 3.82116 17.8439C3.5086 17.5313 3.33301 17.1074 3.33301 16.6654V4.9987C3.33301 4.55667 3.5086 4.13275 3.82116 3.82019C4.13372 3.50763 4.55765 3.33203 4.99967 3.33203H6.66634" stroke="#202244" stroke-width="1.5" stroke-linecap="round" stroke-linejoin="round"/>
<path d="M10 9.16797H13.3333" stroke="#202244" stroke-width="1.5" stroke-linecap="round" stroke-linejoin="round"/>
<path d="M10 13.332H13.3333" stroke="#202244" stroke-width="1.5" stroke-linecap="round" stroke-linejoin="round"/>
<path d="M6.66699 9.16797H6.67533" stroke="#202244" stroke-width="1.5" stroke-linecap="round" stroke-linejoin="round"/>
<path d="M6.66699 13.332H6.67533" stroke="#202244" stroke-width="1.5" stroke-linecap="round" stroke-linejoin="round"/>
</svg>
