<svg width="17" height="16" viewBox="0 0 17 16" fill="none" xmlns="http://www.w3.org/2000/svg">
<path fill-rule="evenodd" clip-rule="evenodd" d="M8.20873 14.2932C7.62923 14.2932 7.15986 13.8239 7.15986 13.2444C7.15986 12.6649 7.62923 12.1955 8.20873 12.1955C8.78823 12.1955 9.2576 12.6649 9.2576 13.2444C9.2576 13.8239 8.78823 14.2932 8.20873 14.2932ZM15.5508 12.7199H10.2325C9.99703 11.7938 9.16318 11.1466 8.20871 11.1466C7.25423 11.1466 6.42038 11.7938 6.18491 12.7199H0.866599C0.577635 12.7199 0.342163 12.9554 0.342163 13.2444C0.342163 13.5333 0.577635 13.7688 0.866599 13.7688H6.18491C6.42038 14.695 7.25423 15.3421 8.20871 15.3421C9.16318 15.3421 9.99703 14.695 10.2325 13.7688H15.5508C15.8398 13.7688 16.0752 13.5333 16.0752 13.2444C16.0752 12.9554 15.8398 12.7199 15.5508 12.7199ZM13.453 9.04888C12.8735 9.04888 12.4041 8.57951 12.4041 8.00001C12.4041 7.42051 12.8735 6.95114 13.453 6.95114C14.0325 6.95114 14.5019 7.42051 14.5019 8.00001C14.5019 8.57951 14.0325 9.04888 13.453 9.04888ZM15.5508 7.47555H15.4769C15.2414 6.5494 14.4075 5.90225 13.4531 5.90225C12.4986 5.90225 11.6647 6.5494 11.4293 7.47555H0.866599C0.577635 7.47555 0.342163 7.71103 0.342163 7.99999C0.342163 8.28895 0.577635 8.52443 0.866599 8.52443H11.4293C11.6647 9.45058 12.4986 10.0977 13.4531 10.0977C14.4075 10.0977 15.2414 9.45058 15.4769 8.52443H15.5508C15.8398 8.52443 16.0752 8.28895 16.0752 7.99999C16.0752 7.71103 15.8398 7.47555 15.5508 7.47555ZM2.96436 1.70676C3.54386 1.70676 4.01323 2.17613 4.01323 2.75563C4.01323 3.33513 3.54386 3.8045 2.96436 3.8045C2.38486 3.8045 1.91549 3.33513 1.91549 2.75563C1.91549 2.17613 2.38486 1.70676 2.96436 1.70676ZM0.866657 3.28008H0.940603C1.17607 4.20623 2.00993 4.85339 2.9644 4.85339C3.91888 4.85339 4.75273 4.20623 4.9882 3.28008H15.5509C15.8398 3.28008 16.0753 3.04461 16.0753 2.75564C16.0753 2.46668 15.8398 2.23121 15.5509 2.23121H4.9882C4.75273 1.30505 3.91888 0.657898 2.9644 0.657898C2.00993 0.657898 1.17607 1.30505 0.940603 2.23121H0.866657C0.577693 2.23121 0.342221 2.46668 0.342221 2.75564C0.342221 3.04461 0.577693 3.28008 0.866657 3.28008Z" fill="#E8F1FF"/>
</svg>
