<svg width="20" height="20" viewBox="0 0 20 20" fill="none" xmlns="http://www.w3.org/2000/svg">
<g clip-path="url(#clip0_322_984)">
<path d="M10.8332 5.83219L7.24983 2.24886C6.87348 1.87432 6.36413 1.66406 5.83317 1.66406C5.30221 1.66406 4.79285 1.87432 4.4165 2.24886L2.24984 4.41553C1.8753 4.79188 1.66504 5.30123 1.66504 5.83219C1.66504 6.36315 1.8753 6.87251 2.24984 7.24886L5.83317 10.8322" stroke="#202244" stroke-width="1.5" stroke-linecap="round" stroke-linejoin="round"/>
<path d="M6.66699 4.9987L8.33366 3.33203" stroke="#202244" stroke-width="1.5" stroke-linecap="round" stroke-linejoin="round"/>
<path d="M15 13.3346L16.6667 11.668" stroke="#202244" stroke-width="1.5" stroke-linecap="round" stroke-linejoin="round"/>
<path d="M14.167 9.16797L17.7503 12.7513C18.5337 13.5346 18.5337 14.8013 17.7503 15.5846L15.5837 17.7513C14.8003 18.5346 13.5337 18.5346 12.7503 17.7513L9.16699 14.168" stroke="#202244" stroke-width="1.5" stroke-linecap="round" stroke-linejoin="round"/>
<path d="M17.6453 5.67829C18.0859 5.23781 18.3334 4.64034 18.3335 4.01733C18.3336 3.39432 18.0862 2.79679 17.6457 2.3562C17.2052 1.91561 16.6077 1.66805 15.9847 1.66797C15.3617 1.66789 14.7642 1.91531 14.3236 2.35579L3.20194 13.48C3.00845 13.6729 2.86537 13.9104 2.78527 14.1716L1.68444 17.7983C1.6629 17.8704 1.66127 17.9469 1.67973 18.0198C1.69819 18.0927 1.73604 18.1593 1.78927 18.2125C1.8425 18.2656 1.90912 18.3033 1.98207 18.3217C2.05502 18.34 2.13157 18.3383 2.2036 18.3166L5.8311 17.2166C6.09208 17.1372 6.32958 16.995 6.52277 16.8025L17.6453 5.67829Z" stroke="#202244" stroke-width="1.5" stroke-linecap="round" stroke-linejoin="round"/>
<path d="M12.5 4.16797L15.8333 7.5013" stroke="#202244" stroke-width="1.5" stroke-linecap="round" stroke-linejoin="round"/>
</g>
<defs>
<clipPath id="clip0_322_984">
<rect width="20" height="20" fill="white"/>
</clipPath>
</defs>
</svg>
