<svg width="18" height="18" viewBox="0 0 18 18" fill="none" xmlns="http://www.w3.org/2000/svg">
<path d="M11.25 15.75V9.75C11.25 9.55109 11.171 9.36032 11.0303 9.21967C10.8897 9.07902 10.6989 9 10.5 9H7.5C7.30109 9 7.11032 9.07902 6.96967 9.21967C6.82902 9.36032 6.75 9.55109 6.75 9.75V15.75" stroke="url(#paint0_linear_231_889)" stroke-width="2" stroke-linecap="round" stroke-linejoin="round"/>
<path d="M2.25 7.5001C2.24995 7.2819 2.2975 7.06632 2.38934 6.86839C2.48118 6.67046 2.6151 6.49495 2.78175 6.3541L8.03175 1.85485C8.30249 1.62603 8.64552 1.50049 9 1.50049C9.35448 1.50049 9.69751 1.62603 9.96825 1.85485L15.2183 6.3541C15.3849 6.49495 15.5188 6.67046 15.6107 6.86839C15.7025 7.06632 15.7501 7.2819 15.75 7.5001V14.2501C15.75 14.6479 15.592 15.0295 15.3107 15.3108C15.0294 15.5921 14.6478 15.7501 14.25 15.7501H3.75C3.35218 15.7501 2.97064 15.5921 2.68934 15.3108C2.40804 15.0295 2.25 14.6479 2.25 14.2501V7.5001Z" stroke="url(#paint1_linear_231_889)" stroke-width="2" stroke-linecap="round" stroke-linejoin="round"/>
<defs>
<linearGradient id="paint0_linear_231_889" x1="6.92149" y1="9.90865" x2="11.149" y2="9.97534" gradientUnits="userSpaceOnUse">
<stop stop-color="#AA076B"/>
<stop offset="0.902552" stop-color="#61045F"/>
</linearGradient>
<linearGradient id="paint1_linear_231_889" x1="2.76448" y1="3.4187" x2="15.4438" y2="3.70294" gradientUnits="userSpaceOnUse">
<stop stop-color="#AA076B"/>
<stop offset="0.902552" stop-color="#61045F"/>
</linearGradient>
</defs>
</svg>
