<svg width="20" height="20" viewBox="0 0 20 20" fill="none" xmlns="http://www.w3.org/2000/svg">
<path d="M6.66699 1.66797V5.0013" stroke="#202244" stroke-width="1.5" stroke-linecap="round" stroke-linejoin="round"/>
<path d="M10 1.66797V5.0013" stroke="#202244" stroke-width="1.5" stroke-linecap="round" stroke-linejoin="round"/>
<path d="M13.333 1.66797V5.0013" stroke="#202244" stroke-width="1.5" stroke-linecap="round" stroke-linejoin="round"/>
<path d="M13.333 3.33203H14.9997C15.4417 3.33203 15.8656 3.50763 16.1782 3.82019C16.4907 4.13275 16.6663 4.55667 16.6663 4.9987V6.66536" stroke="#202244" stroke-width="1.5" stroke-linecap="round" stroke-linejoin="round"/>
<path d="M16.667 10V11.6667" stroke="#202244" stroke-width="1.5" stroke-linecap="round" stroke-linejoin="round"/>
<path d="M16.667 15V16.6667C16.667 17.1087 16.4914 17.5326 16.1788 17.8452C15.8663 18.1577 15.4424 18.3333 15.0003 18.3333H14.167" stroke="#202244" stroke-width="1.5" stroke-linecap="round" stroke-linejoin="round"/>
<path d="M10.8337 18.332H9.16699" stroke="#202244" stroke-width="1.5" stroke-linecap="round" stroke-linejoin="round"/>
<path d="M5.83301 18.3333H4.99967C4.55765 18.3333 4.13372 18.1577 3.82116 17.8452C3.5086 17.5326 3.33301 17.1087 3.33301 16.6667V15" stroke="#202244" stroke-width="1.5" stroke-linecap="round" stroke-linejoin="round"/>
<path d="M3.33301 11.6667V10" stroke="#202244" stroke-width="1.5" stroke-linecap="round" stroke-linejoin="round"/>
<path d="M3.33301 6.66536V4.9987C3.33301 4.55667 3.5086 4.13275 3.82116 3.82019C4.13372 3.50763 4.55765 3.33203 4.99967 3.33203H6.66634" stroke="#202244" stroke-width="1.5" stroke-linecap="round" stroke-linejoin="round"/>
<path d="M6.66699 8.33203H11.667" stroke="#202244" stroke-width="1.5" stroke-linecap="round" stroke-linejoin="round"/>
<path d="M6.66699 11.668H13.3337" stroke="#202244" stroke-width="1.5" stroke-linecap="round" stroke-linejoin="round"/>
<path d="M6.66699 15H10.8337" stroke="#202244" stroke-width="1.5" stroke-linecap="round" stroke-linejoin="round"/>
</svg>
