<svg width="20" height="18" viewBox="0 0 20 18" fill="none" xmlns="http://www.w3.org/2000/svg">
<path fill-rule="evenodd" clip-rule="evenodd" d="M13.3906 13.5L14.8495 9.6048L16.3084 13.5H13.3906ZM15.7504 7.2H13.9504L9.90039 18H11.7004L12.7093 15.3H16.9843L18.0004 18H19.8004L15.7504 7.2ZM10.6839 11.763L8.3952 9.5031L8.4231 9.4779C9.9918 7.731 11.106 5.7231 11.763 3.6H14.4V1.8H8.1V0H6.3V1.8H0V3.5892H10.0548C9.45 5.3298 8.4969 6.975 7.2 8.4168C6.363 7.488 5.6709 6.4719 5.1219 5.4H3.3219C3.9798 6.8661 4.8798 8.2548 6.0048 9.5031L1.4202 14.0202L2.7 15.3L7.2 10.8L9.9981 13.5981L10.6839 11.763Z" fill="#1D1D1B"/>
</svg>
