<svg width="16" height="20" viewBox="0 0 16 20" fill="none" xmlns="http://www.w3.org/2000/svg">
<path fill-rule="evenodd" clip-rule="evenodd" d="M7.99268 1.53133C6.98068 1.52733 6.01268 1.93033 5.29768 2.64833C4.58268 3.36733 4.18068 4.34433 4.18068 5.35932C4.17668 6.91033 5.10268 8.31233 6.52768 8.91033C7.94968 9.50432 9.59068 9.18033 10.6837 8.08232C11.7737 6.98833 12.1017 5.33633 11.5127 3.90233C10.9227 2.46933 9.53168 1.53133 7.99268 1.53133ZM5.96478 0.40633C7.95278 -0.42167 10.2458 0.0393305 11.7648 1.57433C13.2888 3.10533 13.7418 5.41433 12.9138 7.41433C12.0898 9.41833 10.1438 10.7233 7.99178 10.7193C5.05478 10.7113 2.67578 8.31633 2.67578 5.35933L2.68378 5.12933C2.76978 3.05233 4.04678 1.20733 5.96478 0.40633ZM5.88325 12.7663C7.32025 12.6453 8.76625 12.6453 10.2032 12.7663C10.9882 12.8213 11.7692 12.9343 12.5352 13.1103C14.1952 13.4463 15.2812 14.1063 15.7343 15.0743C16.0972 15.8753 16.0863 16.8013 15.7072 17.5983C15.2462 18.5673 14.1602 19.2273 12.4722 19.5713C11.7113 19.7423 10.9332 19.8523 10.1482 19.9033C9.28525 20.0003 8.55125 20.0003 7.86725 20.0003H7.59825C7.21125 19.9573 6.91825 19.6293 6.91825 19.2393C6.91825 18.8483 7.21125 18.5203 7.59825 18.4773H8.19525C8.79325 18.4693 9.39825 18.4423 10.0002 18.3913C10.7113 18.3443 11.4183 18.2423 12.1173 18.0903C13.3123 17.8283 14.0663 17.4493 14.3013 16.9463C14.4843 16.5633 14.4843 16.1173 14.3013 15.7353C14.0663 15.2233 13.3123 14.8283 12.1403 14.5903C11.4333 14.4303 10.7153 14.3243 9.99225 14.2813C8.64125 14.1563 7.28125 14.1563 5.93025 14.2813C5.21525 14.3283 4.50425 14.4263 3.80525 14.5783C2.60525 14.8443 1.86325 15.2233 1.62125 15.7233C1.53125 15.9143 1.48825 16.1213 1.48825 16.3323C1.48825 16.5433 1.53125 16.7543 1.62125 16.9463C2.03525 17.5203 2.66825 17.8913 3.36725 17.9773L3.46925 18.0043C3.69925 18.0823 3.87925 18.2703 3.94925 18.5123C4.03125 18.7813 3.95325 19.0783 3.75025 19.2783C3.54725 19.4773 3.25025 19.5433 2.98425 19.4533C1.85525 19.2703 0.86725 18.5943 0.28125 17.6063C-0.09375 16.8093 -0.09375 15.8793 0.28125 15.0823C0.74625 14.0863 1.82825 13.4463 3.50025 13.1023C4.28525 12.9303 5.08225 12.8213 5.88325 12.7663Z" fill="#202244"/>
</svg>
