<svg width="20" height="20" viewBox="0 0 20 20" fill="none" xmlns="http://www.w3.org/2000/svg">
<g clip-path="url(#clip0_322_1051)">
<path d="M15.0003 18.3333H3.33366C2.89163 18.3333 2.46771 18.1577 2.15515 17.8452C1.84259 17.5326 1.66699 17.1087 1.66699 16.6667V5" stroke="#202244" stroke-width="1.5" stroke-linecap="round" stroke-linejoin="round"/>
<path d="M18.3337 10.8322L17.2537 9.75218C16.877 9.37561 16.3663 9.16406 15.8337 9.16406C15.3011 9.16406 14.7903 9.37561 14.4137 9.75218L9.16699 14.9989" stroke="#202244" stroke-width="1.5" stroke-linecap="round" stroke-linejoin="round"/>
<path d="M9.99967 8.33333C10.9201 8.33333 11.6663 7.58714 11.6663 6.66667C11.6663 5.74619 10.9201 5 9.99967 5C9.0792 5 8.33301 5.74619 8.33301 6.66667C8.33301 7.58714 9.0792 8.33333 9.99967 8.33333Z" stroke="#202244" stroke-width="1.5" stroke-linecap="round" stroke-linejoin="round"/>
<path d="M16.6667 1.66797H6.66667C5.74619 1.66797 5 2.41416 5 3.33464V13.3346C5 14.2551 5.74619 15.0013 6.66667 15.0013H16.6667C17.5871 15.0013 18.3333 14.2551 18.3333 13.3346V3.33464C18.3333 2.41416 17.5871 1.66797 16.6667 1.66797Z" stroke="#202244" stroke-width="1.5" stroke-linecap="round" stroke-linejoin="round"/>
</g>
<defs>
<clipPath id="clip0_322_1051">
<rect width="20" height="20" fill="white"/>
</clipPath>
</defs>
</svg>
