<svg width="14" height="14" viewBox="0 0 14 14" fill="none" xmlns="http://www.w3.org/2000/svg">
<path d="M6.99967 12.8327H10.4997C10.8091 12.8327 11.1058 12.7098 11.3246 12.491C11.5434 12.2722 11.6663 11.9754 11.6663 11.666V4.08268L8.74967 1.16602H3.49967C3.19026 1.16602 2.89351 1.28893 2.67472 1.50772C2.45592 1.72652 2.33301 2.02326 2.33301 2.33268V4.08268" stroke="#C71720" stroke-width="1.5" stroke-linecap="round" stroke-linejoin="round"/>
<path d="M8.16699 1.16602V3.49935C8.16699 3.80877 8.28991 4.10551 8.5087 4.32431C8.72749 4.5431 9.02424 4.66602 9.33366 4.66602H11.667" stroke="#C71720" stroke-width="1.5" stroke-linecap="round" stroke-linejoin="round"/>
<path d="M2.91699 9.91602C3.14681 9.91602 3.37437 9.87075 3.58669 9.7828C3.79901 9.69486 3.99193 9.56596 4.15443 9.40345C4.31693 9.24095 4.44584 9.04803 4.53378 8.83571C4.62173 8.62339 4.66699 8.39583 4.66699 8.16602C4.66699 7.9362 4.62173 7.70864 4.53378 7.49632C4.44584 7.284 4.31693 7.09108 4.15443 6.92858C3.99193 6.76608 3.79901 6.63717 3.58669 6.54923C3.37437 6.46128 3.14681 6.41602 2.91699 6.41602C2.45286 6.41602 2.00774 6.60039 1.67956 6.92858C1.35137 7.25677 1.16699 7.70189 1.16699 8.16602C1.16699 8.63014 1.35137 9.07526 1.67956 9.40345C2.00774 9.73164 2.45286 9.91602 2.91699 9.91602Z" stroke="#C71720" stroke-width="1.5" stroke-linecap="round" stroke-linejoin="round"/>
<path d="M4.08366 9.625L4.66699 12.8333L2.91699 12.25L1.16699 12.8333L1.75033 9.625" stroke="#C71720" stroke-width="1.5" stroke-linecap="round" stroke-linejoin="round"/>
</svg>
