<svg width="8" height="9" viewBox="0 0 8 9" fill="none" xmlns="http://www.w3.org/2000/svg">
<path fill-rule="evenodd" clip-rule="evenodd" d="M5.28762 2.7176H1.8986C1.70509 2.7176 1.54849 2.876 1.54849 3.07446C1.54849 3.27156 1.70509 3.42951 1.8986 3.42951H5.28762C5.48113 3.42951 5.63908 3.27156 5.63908 3.07446C5.63908 2.876 5.48113 2.7176 5.28762 2.7176ZM4.98161 0C6.20159 0 7.18621 0.481511 7.20016 1.70509V8.53624C7.20016 8.61364 7.18261 8.68924 7.14571 8.75765C7.08766 8.86475 6.98911 8.94575 6.86805 8.98265C6.75015 9.01775 6.6201 9.0002 6.5112 8.93675L3.59468 7.47962L0.675015 8.93675C0.608414 8.97185 0.531012 8.9948 0.45541 8.9948C0.202055 8.9948 0 8.78915 0 8.53624V1.70509C0 0.481511 0.989572 0 2.20415 0H4.98161Z" fill="#167F71"/>
</svg>
