<svg width="18" height="18" viewBox="0 0 18 18" fill="none" xmlns="http://www.w3.org/2000/svg">
<path fill-rule="evenodd" clip-rule="evenodd" d="M17.7786 16.7439L14.6846 13.7211L14.6144 13.6122C14.4776 13.4745 14.2949 13.4007 14.1014 13.4007C13.9115 13.4007 13.7252 13.4745 13.592 13.6122C10.9623 16.0231 6.91253 16.1536 4.12446 13.9172C1.33639 11.6782 0.679423 7.7689 2.58823 4.77843C4.49704 1.78886 8.37856 0.647744 11.658 2.11013C14.9383 3.57252 16.6006 7.18485 15.5395 10.5533C15.4657 10.7999 15.5251 11.0636 15.7042 11.2498C15.8806 11.4361 16.1479 11.5135 16.4008 11.4568C16.6537 11.401 16.858 11.2138 16.9354 10.9718C18.2007 6.97516 16.2883 2.67259 12.4356 0.846629C8.58195 -0.976632 3.94177 0.225676 1.51998 3.67691C-0.902702 7.12905 -0.382527 11.7907 2.74662 14.6525C5.87128 17.5107 10.6671 17.7068 14.0276 15.1132L16.7662 17.7914C17.0478 18.0695 17.5041 18.0695 17.7894 17.7914C18.0702 17.5134 18.0702 17.0634 17.7894 16.7826L17.7786 16.7439Z" fill="black"/>
</svg>
