<svg width="12" height="12" viewBox="0 0 12 12" fill="none" xmlns="http://www.w3.org/2000/svg">
<path fill-rule="evenodd" clip-rule="evenodd" d="M6.58815 0.373042L7.92435 3.05684C8.02275 3.25124 8.20995 3.38744 8.42775 3.41984L11.426 3.85604C11.6012 3.88184 11.7608 3.97304 11.8664 4.11344C11.9744 4.25444 12.0188 4.43024 11.993 4.60364C11.972 4.74644 11.9036 4.88024 11.801 4.98104L9.62775 7.08584C9.46875 7.23584 9.39615 7.45124 9.43335 7.66424L9.97035 10.627C10.0286 10.981 9.79215 11.3158 9.43335 11.3884C9.28815 11.4118 9.13815 11.3884 9.00675 11.3206L6.33015 9.92624C6.13095 9.82544 5.89695 9.82544 5.70015 9.92624L3.02355 11.3206C2.69235 11.4964 2.28075 11.3746 2.10195 11.0512C2.03475 10.9222 2.01135 10.7746 2.03235 10.6318L2.56815 7.66904C2.60655 7.45844 2.53395 7.24004 2.37435 7.09004L0.201153 4.98764C0.0751531 4.86344 0.00195312 4.69484 0.00195312 4.51904C0.00195312 4.34324 0.0751531 4.17464 0.201153 4.05044C0.304353 3.94724 0.439953 3.87944 0.588153 3.86084L3.58635 3.42464C3.80355 3.39164 3.99075 3.25844 4.08735 3.06164L5.37855 0.373042C5.49075 0.145642 5.72775 0.000442432 5.98815 0.00524243H6.06795C6.29295 0.0334424 6.48975 0.171442 6.58815 0.373042Z" fill="#FCCB40"/>
<path fill-rule="evenodd" clip-rule="evenodd" d="M6.00453 9.84655C5.88693 9.84655 5.77713 9.88615 5.67153 9.93775L3.00453 11.328C2.68353 11.4894 2.27793 11.3604 2.10213 11.0514C2.03433 10.9248 2.00853 10.7796 2.03193 10.6362L2.56833 7.68115C2.60373 7.46515 2.53113 7.24975 2.37393 7.09735L0.196528 4.99255C-0.0656721 4.73515 -0.0656721 4.31515 0.196528 4.05535C0.299728 3.95455 0.433528 3.88855 0.576328 3.86755L3.58593 3.42475C3.81513 3.39175 3.98193 3.26335 4.08693 3.06175L5.39493 0.342554C5.49333 0.122354 5.82873 -0.0300459 6.00933 0.00535407C6.00453 0.185954 6.00453 9.72715 6.00453 9.84655Z" fill="#FAC025"/>
</svg>
