<svg width="14" height="14" viewBox="0 0 14 14" fill="none" xmlns="http://www.w3.org/2000/svg">
<path d="M5.25 7H8.75" stroke="#A1A5B3" stroke-width="1.5" stroke-linecap="round" stroke-linejoin="round"/>
<path d="M5.25 8.75H8.75" stroke="#A1A5B3" stroke-width="1.5" stroke-linecap="round" stroke-linejoin="round"/>
<path d="M3.0625 2.1875H10.9375C11.0535 2.1875 11.1648 2.23359 11.2469 2.31564C11.3289 2.39769 11.375 2.50897 11.375 2.625V10.9375C11.375 11.2856 11.2367 11.6194 10.9906 11.8656C10.7444 12.1117 10.4106 12.25 10.0625 12.25H3.9375C3.5894 12.25 3.25556 12.1117 3.00942 11.8656C2.76328 11.6194 2.625 11.2856 2.625 10.9375V2.625C2.625 2.50897 2.67109 2.39769 2.75314 2.31564C2.83519 2.23359 2.94647 2.1875 3.0625 2.1875Z" stroke="#A1A5B3" stroke-width="1.5" stroke-linecap="round" stroke-linejoin="round"/>
<path d="M4.375 1.3125V3.0625" stroke="#A1A5B3" stroke-width="1.5" stroke-linecap="round" stroke-linejoin="round"/>
<path d="M7 1.3125V3.0625" stroke="#A1A5B3" stroke-width="1.5" stroke-linecap="round" stroke-linejoin="round"/>
<path d="M9.625 1.3125V3.0625" stroke="#A1A5B3" stroke-width="1.5" stroke-linecap="round" stroke-linejoin="round"/>
</svg>
