<svg width="20" height="20" viewBox="0 0 20 20" fill="none" xmlns="http://www.w3.org/2000/svg">
<path d="M15.0003 17.4987C15.0003 15.7306 14.2979 14.0349 13.0477 12.7847C11.7975 11.5344 10.1018 10.832 8.33366 10.832C6.56555 10.832 4.86986 11.5344 3.61961 12.7847C2.36937 14.0349 1.66699 15.7306 1.66699 17.4987" stroke="#202244" stroke-width="1.5" stroke-linecap="round" stroke-linejoin="round"/>
<path d="M8.33366 10.8333C10.6348 10.8333 12.5003 8.96785 12.5003 6.66667C12.5003 4.36548 10.6348 2.5 8.33366 2.5C6.03247 2.5 4.16699 4.36548 4.16699 6.66667C4.16699 8.96785 6.03247 10.8333 8.33366 10.8333Z" stroke="#202244" stroke-width="1.5" stroke-linecap="round" stroke-linejoin="round"/>
<path d="M18.3333 16.6654C18.3333 13.857 16.6667 11.2487 15 9.9987C15.5478 9.58767 15.9859 9.04794 16.2755 8.42726C16.565 7.80657 16.6971 7.12409 16.66 6.4402C16.6229 5.75631 16.4178 5.0921 16.0629 4.50636C15.7079 3.92063 15.2141 3.43142 14.625 3.08203" stroke="#202244" stroke-width="1.5" stroke-linecap="round" stroke-linejoin="round"/>
</svg>
