<svg width="14" height="14" viewBox="0 0 14 14" fill="none" xmlns="http://www.w3.org/2000/svg">
<path d="M4.8125 8.75C6.38306 8.75 7.65625 7.47681 7.65625 5.90625C7.65625 4.33569 6.38306 3.0625 4.8125 3.0625C3.24194 3.0625 1.96875 4.33569 1.96875 5.90625C1.96875 7.47681 3.24194 8.75 4.8125 8.75Z" stroke="#A1A5B3" stroke-width="1.5" stroke-miterlimit="10"/>
<path d="M8.49902 3.16908C8.89016 3.05888 9.30037 3.03377 9.70203 3.09546C10.1037 3.15714 10.4875 3.30418 10.8275 3.52667C11.1675 3.74916 11.456 4.04194 11.6733 4.38529C11.8907 4.72863 12.0319 5.11457 12.0876 5.5171C12.1432 5.91964 12.112 6.32943 11.9959 6.71886C11.8799 7.1083 11.6817 7.46835 11.4148 7.77475C11.1478 8.08115 10.8184 8.3268 10.4485 8.49514C10.0786 8.66348 9.67701 8.7506 9.27064 8.75065" stroke="#A1A5B3" stroke-width="1.5" stroke-linecap="round" stroke-linejoin="round"/>
<path d="M0.875 10.7951C1.31914 10.1634 1.90875 9.64777 2.59407 9.29181C3.27939 8.93586 4.0403 8.75003 4.81255 8.75C5.58479 8.74997 6.34571 8.93575 7.03106 9.29165C7.71641 9.64754 8.30606 10.1631 8.75025 10.7948" stroke="#A1A5B3" stroke-width="1.5" stroke-linecap="round" stroke-linejoin="round"/>
<path d="M9.27051 8.75C10.0428 8.74944 10.8039 8.93499 11.4893 9.29093C12.1747 9.64688 12.7643 10.1627 13.208 10.7948" stroke="#A1A5B3" stroke-width="1.5" stroke-linecap="round" stroke-linejoin="round"/>
</svg>
