<svg width="19" height="18" viewBox="0 0 19 18" fill="none" xmlns="http://www.w3.org/2000/svg">
<path fill-rule="evenodd" clip-rule="evenodd" d="M3.99233 1.07463C5.24024 1.07463 6.25388 2.08961 6.25388 3.33618C6.25388 4.58301 5.24024 5.59773 3.99233 5.59773C2.74576 5.59773 1.73185 4.58301 1.73185 3.33618C1.73185 2.08961 2.74576 1.07463 3.99233 1.07463ZM3.99233 6.67236C5.83209 6.67236 7.32851 5.17594 7.32851 3.33618C7.32851 1.49669 5.83209 0 3.99233 0C2.15391 0 0.657227 1.49669 0.657227 3.33618C0.657227 5.17594 2.15284 6.67236 3.99233 6.67236Z" fill="#EB6A20"/>
<path fill-rule="evenodd" clip-rule="evenodd" d="M2.78233 3.33666L2.78153 3.26546C2.78045 3.2351 2.78045 3.2351 2.78663 3.19937C2.81403 3.05349 2.71839 2.91272 2.57359 2.88558C2.42771 2.85818 2.2872 2.95275 2.25872 3.09863C2.24502 3.15934 2.24099 3.2214 2.24421 3.28319L2.24502 3.33666C2.24932 3.48146 2.3678 3.59699 2.51368 3.59699C2.65875 3.59699 2.77723 3.48254 2.78233 3.33666Z" fill="#EB6A20"/>
<path fill-rule="evenodd" clip-rule="evenodd" d="M2.76156 2.78207C2.85183 2.78207 2.93592 2.73801 2.98508 2.66252C3.20968 2.3267 3.58741 2.1252 3.99147 2.1252C4.14057 2.1252 4.26012 2.00538 4.26012 1.85655C4.26012 1.70852 4.14057 1.58789 3.99147 1.58789C3.40821 1.58789 2.86338 1.87858 2.53911 2.36323C2.48457 2.44625 2.4792 2.5521 2.52541 2.63941C2.57162 2.72753 2.66296 2.78207 2.76156 2.78207Z" fill="#EB6A20"/>
<path fill-rule="evenodd" clip-rule="evenodd" d="M11.5149 1.07463C12.7628 1.07463 13.7764 2.08961 13.7764 3.33618C13.7764 4.58301 12.7628 5.59773 11.5149 5.59773C10.2681 5.59773 9.25334 4.58301 9.25334 3.33618C9.25414 2.08961 10.2681 1.07463 11.5149 1.07463ZM11.5149 6.67236C13.3547 6.67236 14.8511 5.17594 14.8511 3.33618C14.8511 1.49669 13.3547 0 11.5149 0C9.67513 0 8.17871 1.49669 8.17871 3.33618C8.17952 5.17594 9.6762 6.67236 11.5149 6.67236Z" fill="#EB6A20"/>
<path fill-rule="evenodd" clip-rule="evenodd" d="M10.2848 2.78207C10.3751 2.78207 10.4589 2.73801 10.5083 2.66252C10.7329 2.3267 11.1107 2.1252 11.5147 2.1252C11.6638 2.1252 11.7834 2.00538 11.7834 1.85655C11.7834 1.70852 11.6638 1.58789 11.5147 1.58789C10.9312 1.58789 10.3866 1.87858 10.0624 2.36323C10.0068 2.44625 10.0014 2.5521 10.0487 2.63941C10.0949 2.72753 10.1862 2.78207 10.2848 2.78207Z" fill="#EB6A20"/>
<path fill-rule="evenodd" clip-rule="evenodd" d="M17.2255 16.1651C17.151 16.1485 17.0713 16.1232 17.0156 16.1055C13.4014 14.2029 13.2754 14.1996 13.1158 14.1996C12.9678 14.1996 12.8262 14.2542 12.7244 14.3622C12.6226 14.4694 12.5702 14.6005 12.5796 14.7485L12.6583 16.0477C12.651 16.4644 12.3077 16.7331 11.8711 16.7331H1.8943C1.43785 16.7331 1.07463 16.5399 1.07463 16.1232V9.10026C1.07463 8.64596 1.47439 8.13713 1.8943 8.13713V8.13605H11.8711C12.2932 8.13605 12.65 8.55784 12.6583 8.99549L12.5796 10.155C12.5691 10.3041 12.6215 10.4508 12.7222 10.5601C12.8241 10.6692 12.9667 10.7313 13.1158 10.7313C13.291 10.7313 13.3383 10.7313 17.0481 8.74563C17.1215 8.71098 17.1771 8.69002 17.2182 8.67847C17.2244 8.72683 17.2287 8.79722 17.2265 8.90307L17.2255 16.1651ZM17.961 7.86202C17.7848 7.68256 17.5656 7.58611 17.298 7.58611C17.0807 7.58611 16.8467 7.64387 16.5621 7.78116C15.6167 8.28596 14.6689 8.78459 13.7192 9.27972L13.7319 9.07823C13.7329 9.06587 13.734 9.02584 13.734 9.01214C13.734 7.96707 12.8987 7.0625 11.8711 7.0625H1.8943C0.884687 7.0625 0 8.05519 0 9.10026V16.1232C0 17.1285 0.85003 17.8077 1.8943 17.8077H11.8711C12.9071 17.8077 13.7192 17.07 13.7329 16.0561C13.7319 16.0582 13.7319 16.059 13.7319 16.0571L13.7047 15.6101C14.4183 15.9679 15.5276 16.5431 16.5549 17.0845C16.5842 17.1001 16.6116 17.114 16.643 17.1234C16.9232 17.2094 17.1457 17.2693 17.3609 17.2704C17.744 17.2672 17.9758 17.0804 18.0881 16.9241C18.2224 16.7392 18.2687 16.4999 18.2687 16.1767V8.91999C18.2687 8.70587 18.2958 8.20214 17.961 7.86202Z" fill="#EB6A20"/>
<path fill-rule="evenodd" clip-rule="evenodd" d="M13.7314 16.0567L13.7325 16.0401C13.7325 16.0462 13.7314 16.0513 13.7314 16.0567Z" fill="#EB6A20"/>
<path fill-rule="evenodd" clip-rule="evenodd" d="M4.86762 8.67383H2.58619C2.04672 8.67383 1.6123 9.33902 1.6123 9.83657V11.2019C1.6123 11.3499 1.73186 11.4692 1.88096 11.4692C2.02899 11.4692 2.14962 11.3499 2.14962 11.2005V9.83523C2.14962 9.58565 2.39007 9.21222 2.58619 9.21222H4.86762C5.01672 9.21222 5.13627 9.09132 5.13627 8.94248C5.13627 8.79446 5.01672 8.67383 4.86762 8.67383Z" fill="#EB6A20"/>
<path fill-rule="evenodd" clip-rule="evenodd" d="M6.21017 8.67578H5.94151C5.79348 8.67578 5.67285 8.79533 5.67285 8.94444C5.67285 9.0922 5.79348 9.21309 5.94151 9.21309H6.21017C6.35927 9.21309 6.47882 9.0922 6.47882 8.94444C6.47882 8.79533 6.35927 8.67578 6.21017 8.67578Z" fill="#EB6A20"/>
</svg>
